<svg xmlns="http://www.w3.org/2000/svg" x="0px" y="0px"
width="50" height="50"
viewBox="0 0 192 192"
style=" fill:#000000;"><g fill="none" fill-rule="nonzero" stroke="none" stroke-width="1" stroke-linecap="butt" stroke-linejoin="miter" stroke-miterlimit="10" stroke-dasharray="" stroke-dashoffset="0" font-family="none" font-weight="none" font-size="none" text-anchor="none" style="mix-blend-mode: normal"><path d="M0,192v-192h192v192z" fill="none"></path><g fill="#cccccc"><g id="surface1"><path d="M92.16,0c-2.13,0 -3.84,1.71 -3.84,3.84v9.36c-6.75,2.97 -11.52,9.675 -11.52,17.52c0,10.59 8.61,19.2 19.2,19.2c10.59,0 19.2,-8.61 19.2,-19.2c0,-7.845 -4.77,-14.55 -11.52,-17.52v-9.36c0,-2.13 -1.71,-3.84 -3.84,-3.84zM73.32,45.12l-20.28,54.72h-22.44c-0.165,-0.015 -0.315,-0.015 -0.48,0c-2.115,0.135 -3.735,1.965 -3.6,4.08c0.135,2.115 1.965,3.735 4.08,3.6h57.72v11.52c0,2.13 1.71,3.84 3.84,3.84h7.68c2.13,0 3.84,-1.71 3.84,-3.84v-11.52h57.6c1.38,0.015 2.67,-0.705 3.375,-1.905c0.69,-1.2 0.69,-2.67 0,-3.87c-0.705,-1.2 -1.995,-1.92 -3.375,-1.905h-22.32l-20.28,-54.72c-4.335,6.81 -11.595,11.55 -20.04,12.36l16.32,42.36h-11.28v-11.52c0,-2.13 -1.71,-3.84 -3.84,-3.84h-7.68c-2.13,0 -3.84,1.71 -3.84,3.84v11.52h-11.28l16.32,-42.36c-8.445,-0.81 -15.705,-5.55 -20.04,-12.36zM47.52,114.84l-15.6,42c-0.285,0.78 -0.24,1.71 0,2.52l6.48,21.6v7.2c-0.015,1.38 0.705,2.67 1.905,3.375c1.2,0.69 2.67,0.69 3.87,0c1.2,-0.705 1.92,-1.995 1.905,-3.375v-7.2l25.32,-66.12zM120.6,114.84l25.32,66.12v7.2c-0.015,1.38 0.705,2.67 1.905,3.375c1.2,0.69 2.67,0.69 3.87,0c1.2,-0.705 1.92,-1.995 1.905,-3.375v-7.2l6.48,-21.6c0.24,-0.81 0.3,-1.74 0,-2.52l-15.6,-42z"></path></g></g></g></svg>