<svg xmlns="http://www.w3.org/2000/svg" width="250" height="250" viewBox="0 0 250 250"><defs><style>.cls-1{fill:none;stroke:#2fce74;stroke-linecap:round;stroke-linejoin:round;stroke-width:6px;}</style></defs><title>_</title><g id="Layer_2" data-name="Layer 2"><polygon class="cls-1" points="124.97 48.09 94.63 31.04 125.03 13.89 155.37 30.94 124.97 48.09"/><polyline class="cls-1" points="155.37 66.45 124.97 83.61 94.63 66.56"/><line class="cls-1" x1="94.63" y1="31.04" x2="94.63" y2="66.56"/><line class="cls-1" x1="125.03" y1="48.09" x2="125.03" y2="83.61"/><polygon class="cls-1" points="124.97 147.5 94.63 130.45 125.03 113.3 155.37 130.35 124.97 147.5"/><polyline class="cls-1" points="155.37 165.87 124.97 183.02 94.63 165.97"/><line class="cls-1" x1="94.63" y1="130.45" x2="94.63" y2="165.97"/><line class="cls-1" x1="125.03" y1="147.5" x2="125.03" y2="183.02"/><line class="cls-1" x1="155.37" y1="130.35" x2="155.37" y2="165.87"/><polygon class="cls-1" points="38.88 195.51 8.54 178.46 38.94 161.31 69.28 178.36 38.88 195.51"/><polyline class="cls-1" points="69.28 213.88 38.88 231.03 8.54 213.98"/><line class="cls-1" x1="38.94" y1="231.03" x2="38.94" y2="195.51"/><line class="cls-1" x1="69.28" y1="178.36" x2="69.28" y2="213.87"/><line class="cls-1" x1="38.88" y1="195.51" x2="108.05" y2="156.82"/><polygon class="cls-1" points="211.12 195.51 241.46 178.46 211.06 161.31 180.72 178.36 211.12 195.51"/><polyline class="cls-1" points="180.72 213.88 211.12 231.03 241.46 213.98"/><line class="cls-1" x1="241.46" y1="178.46" x2="241.46" y2="213.98"/><line class="cls-1" x1="211.06" y1="231.03" x2="211.06" y2="195.51"/><line class="cls-1" x1="180.72" y1="178.36" x2="180.72" y2="213.87"/><line class="cls-1" x1="211.12" y1="195.51" x2="141.95" y2="156.82"/><line class="cls-1" x1="125.03" y1="57.07" x2="125.03" y2="130.4"/><line class="cls-1" x1="155.37" y1="30.94" x2="155.37" y2="66.45"/><line class="cls-1" x1="8.54" y1="178.46" x2="8.54" y2="213.98"/></g></svg>