<svg xmlns="http://www.w3.org/2000/svg" x="0px" y="0px"
width="64" height="64"
viewBox="0 0 192 192"
style=" fill:#000000;"><g fill="none" fill-rule="nonzero" stroke="none" stroke-width="1" stroke-linecap="butt" stroke-linejoin="miter" stroke-miterlimit="10" stroke-dasharray="" stroke-dashoffset="0" font-family="none" font-weight="none" font-size="none" text-anchor="none" style="mix-blend-mode: normal"><path d="M0,192v-192h192v192z" fill="none"></path><g fill="#cccccc"><g id="surface1"><path d="M134.54297,6c-11.03906,-0.08203 -21.32812,4.39453 -28.69922,12h-73.81641c-4.37109,0 -8.09765,3.12891 -8.84765,7.42969l-16.94531,96.01172c-0.15234,0.85547 -0.23437,1.74609 -0.23437,2.61328v40.94531c0,4.95703 4.04297,9 9,9h150c4.95703,0 9,-4.04297 9,-9v-40.94531c0,-0.86719 -0.08203,-1.7461 -0.23437,-2.60156l-4.48828,-25.5c12.17578,-0.51562 22.26563,-10.24219 22.71094,-22.17187c0.36328,-10.04297 -5.88281,-18.92578 -14.82422,-22.38281c-0.08203,-0.03516 -0.12891,-0.10547 -0.21094,-0.12891c-0.375,-0.15234 -0.77344,-0.23437 -1.16016,-0.35156c-0.22265,-0.07031 -0.45703,-0.14062 -0.67969,-0.19922c-0.55078,-0.16406 -1.08984,-0.30469 -1.64062,-0.41016c-0.01172,0 -0.01172,-0.01172 -0.02344,-0.01172c0.41016,-3.33984 0.38672,-6.75 -0.05859,-10.17187c-2.35547,-17.68359 -16.37109,-31.58203 -34.07812,-33.80859c-1.60547,-0.19922 -3.1875,-0.30469 -4.76953,-0.31641zM134.28516,12c1.41797,0 2.84766,0.09375 4.28906,0.28125c14.76563,1.85156 26.90625,13.89844 28.86328,28.64063c0.39844,3.01172 0.39844,6.03516 0,8.98828c-0.83203,0.04688 -1.67578,0.11719 -2.51953,0.25781c-1.6289,0.29297 -2.73047,1.83985 -2.44922,3.46875c0.29297,1.64063 1.85156,2.71875 3.46875,2.4375c1.32422,-0.22265 2.63672,-0.26953 3.9375,-0.19922c0.51563,0.03516 1.01953,0.09375 1.51172,0.16406c0.11719,0.01172 0.22266,0.03515 0.32813,0.05859c8.33203,1.38281 14.58985,8.84766 14.27344,17.46094c-0.33984,9.07031 -8.27344,16.44141 -17.70703,16.44141h-62.44922c-14.39062,0 -26.25,-10.875 -27.01172,-24.75c-0.6211,-11.30859 6.19922,-21.65625 16.38281,-25.78125c-0.30469,1.99219 -0.50391,4.00781 -0.50391,6.04688c0,1.66406 1.34766,3 3,3c1.65235,0 3,-1.33594 3,-3c0,-3.24609 0.46875,-6.42187 1.38281,-9.48047c0,-0.02344 0.01172,-0.02344 0.01172,-0.03516c0.19922,-0.69141 0.44531,-1.34766 0.69141,-2.01562c0.09375,-0.28125 0.1875,-0.57422 0.30469,-0.85547c5.07422,-12.80859 17.42578,-21.12891 31.19531,-21.12891zM32.02734,24h69.0586c-1.21875,1.875 -2.27344,3.86719 -3.17578,5.97656c-0.03516,0.05859 -0.08203,0.10547 -0.10547,0.16406c-0.22266,0.52734 -0.38672,1.06641 -0.58594,1.60547c-0.11719,0.29297 -0.23437,0.5625 -0.33984,0.85547c-14.64844,3.80859 -24.87891,17.68359 -24.04687,32.97656c0.92578,17.0625 15.42188,30.42188 33,30.42188h57.35156l4.24219,24h-154.85156l16.51172,-93.51562c0.24609,-1.44141 1.48828,-2.48437 2.9414,-2.48437zM12,126h156v39c0,1.65234 -1.34766,3 -3,3h-150c-1.65234,0 -3,-1.34766 -3,-3zM33,138c-4.95703,0 -9,4.04297 -9,9c0,4.95703 4.04297,9 9,9c4.95703,0 9,-4.04297 9,-9c0,-4.95703 -4.04297,-9 -9,-9zM93,141c-1.65234,0 -3,1.33594 -3,3v6c0,1.66406 1.34766,3 3,3c1.65234,0 3,-1.33594 3,-3v-6c0,-1.66406 -1.34766,-3 -3,-3zM108,141c-1.65234,0 -3,1.33594 -3,3v6c0,1.66406 1.34766,3 3,3c1.65234,0 3,-1.33594 3,-3v-6c0,-1.66406 -1.34766,-3 -3,-3zM123,141c-1.65234,0 -3,1.33594 -3,3v6c0,1.66406 1.34766,3 3,3c1.65234,0 3,-1.33594 3,-3v-6c0,-1.66406 -1.34766,-3 -3,-3zM138,141c-1.65234,0 -3,1.33594 -3,3v6c0,1.66406 1.34766,3 3,3c1.65234,0 3,-1.33594 3,-3v-6c0,-1.66406 -1.34766,-3 -3,-3zM153,141c-1.65234,0 -3,1.33594 -3,3v6c0,1.66406 1.34766,3 3,3c1.65234,0 3,-1.33594 3,-3v-6c0,-1.66406 -1.34766,-3 -3,-3zM33,143.37891c1.99219,0 3.62109,1.62891 3.62109,3.62109c0,1.99219 -1.6289,3.62109 -3.62109,3.62109c-1.99219,0 -3.62109,-1.61719 -3.62109,-3.62109c0,-2.00391 1.62891,-3.62109 3.62109,-3.62109zM51,144c-1.65234,0 -3,1.33594 -3,3c0,1.66406 1.34766,3 3,3h12c1.65234,0 3,-1.33594 3,-3c0,-1.66406 -1.34766,-3 -3,-3z"></path></g></g></g></svg>