<svg xmlns="http://www.w3.org/2000/svg" x="0px" y="0px"
width="50" height="50"
viewBox="0 0 192 192"
style=" fill:#000000;"><g fill="none" fill-rule="nonzero" stroke="none" stroke-width="1" stroke-linecap="butt" stroke-linejoin="miter" stroke-miterlimit="10" stroke-dasharray="" stroke-dashoffset="0" font-family="none" font-weight="none" font-size="none" text-anchor="none" style="mix-blend-mode: normal"><path d="M0,192v-192h192v192z" fill="none"></path><g fill="#cccccc"><g id="surface1"><path d="M88.32,3.84c-27.75,0 -48.21,9.57 -61.44,24.57c-13.23,15.015 -19.2,35.175 -19.2,56.07c0,16.92 5.235,32.67 14.115,45.57c8.04,11.7 12.765,25.545 12.765,39.675v18.435h7.68v-18.435c0,-15.825 -5.265,-31.155 -14.115,-44.025c-8.025,-11.67 -12.765,-25.89 -12.765,-41.22c0,-19.425 5.55,-37.665 17.28,-50.97c11.73,-13.32 29.67,-21.99 55.68,-21.99c26.115,0 43.035,7.605 54.21,19.23c11.175,11.61 16.725,27.63 18.78,44.97l0.09,0.78l18.42,31.74c0.945,1.71 0.465,3.42 -1.2,4.365l-17.34,8.67v23.1c0,14.37 -11.82,25.545 -26.145,24.225l-0.06,-0.015l-16.035,-1.035v20.61h7.68v-12.42l7.71,0.495c18.705,1.755 34.53,-13.2 34.53,-31.86v-18.36l13.38,-6.69c5.235,-2.91 7.065,-9.63 4.185,-14.82l-0.015,-0.03l-17.85,-30.75c-2.28,-17.985 -8.13,-35.34 -20.595,-48.315c-12.735,-13.23 -32.1,-21.57 -59.745,-21.57zM96,53.7c-1.83,0.015 -3.405,1.305 -3.765,3.105l-11.52,53.76c-0.435,2.07 0.885,4.11 2.955,4.56c2.085,0.435 4.125,-0.885 4.575,-2.97l11.52,-53.76c0.255,-1.14 -0.015,-2.34 -0.75,-3.255c-0.735,-0.915 -1.845,-1.44 -3.015,-1.44zM63.495,65.235c-1.26,-0.03 -2.46,0.555 -3.21,1.59l-13.245,17.655l13.245,17.655c1.275,1.71 3.675,2.055 5.37,0.78c1.71,-1.275 2.055,-3.675 0.78,-5.37l-9.795,-13.065l9.795,-13.065c0.885,-1.14 1.05,-2.685 0.435,-3.99c-0.615,-1.305 -1.92,-2.145 -3.375,-2.19zM116.865,65.235c-1.425,0.09 -2.685,0.945 -3.27,2.25c-0.6,1.29 -0.42,2.805 0.45,3.93l9.795,13.065l-9.795,13.065c-1.275,1.695 -0.93,4.095 0.78,5.37c1.695,1.275 4.095,0.93 5.37,-0.78l13.245,-17.655l-13.245,-17.655c-0.765,-1.065 -2.025,-1.665 -3.33,-1.59z"></path></g></g></g></svg>