<svg xmlns="http://www.w3.org/2000/svg" width="250" height="250" viewBox="0 0 250 250"><defs><style>.cls-1{fill:#2fce74;}</style></defs><title>_</title><g id="Layer_2" data-name="Layer 2"><path class="cls-1" d="M188.71,90.93a11.94,11.94,0,0,0-7.59,21.17L149,201,108,45a11.94,11.94,0,0,0-5.71-21.76l-.41-1.54-.54,1.49h-.07a11.95,11.95,0,0,0-7.59,21.17L61,134.74h-.07a12,12,0,1,0,7.59,2.72l32.16-88.87,40.95,155.94a11.94,11.94,0,0,0,5.71,21.77l.41,1.54.54-1.5h.07A11.95,11.95,0,0,0,156,205.18l32.69-90.36h.07a11.95,11.95,0,0,0,0-23.89Z"/></g></svg>