<svg xmlns="http://www.w3.org/2000/svg" width="250" height="250" viewBox="0 0 250 250"><defs><style>.cls-1{fill:#2fce74;}</style></defs><title>_</title><g id="Layer_2" data-name="Layer 2"><polygon class="cls-1" points="116.71 2 154.1 147.63 182.58 68.74 116.71 2"/><polygon class="cls-1" points="141.53 175.12 104.15 29.48 75.67 108.38 141.53 175.12"/><path class="cls-1" d="M93.74,219.2H81.25V227h12v5.9h-12v9.42H93.74v5.9H74.46V213.3H93.74Z"/><path class="cls-1" d="M99.33,225.54h6.34v2.83a8,8,0,0,1,7.1-3.55,8.37,8.37,0,0,1,6.59,2.71c1.2,1.35,1.79,3.45,1.79,6.28v14.38h-6.34V235.63a7.33,7.33,0,0,0-.64-3.66c-.66-1.2-1.89-1.79-3.7-1.79-3.19,0-4.8,2.1-4.8,6.29v11.72H99.33Z"/><path class="cls-1" d="M145.15,212.51a18.06,18.06,0,0,1,13.16,5.29,17.47,17.47,0,0,1,5.39,13,17.28,17.28,0,0,1-5.44,12.95A18.46,18.46,0,0,1,144.92,249a17.9,17.9,0,0,1-13.2-5.31,17.63,17.63,0,0,1-5.31-13,17.24,17.24,0,0,1,5.49-12.93A18.46,18.46,0,0,1,145.15,212.51Zm-.07,6.23a11.17,11.17,0,0,0-8.23,3.5,11.61,11.61,0,0,0-3.45,8.48,11.79,11.79,0,0,0,3.43,8.51,11.39,11.39,0,0,0,16.47,0,11.76,11.76,0,0,0,3.4-8.51,11.65,11.65,0,0,0-3.4-8.48A11.13,11.13,0,0,0,145.08,218.74Z"/><path class="cls-1" d="M176,222.19a2.9,2.9,0,0,0,1.09,2.4,21.51,21.51,0,0,0,5.19,2.45,20.25,20.25,0,0,1,5.95,3.14c2.07,1.74,3.09,4.25,3.09,7.54a10.72,10.72,0,0,1-3.35,8.12,12.22,12.22,0,0,1-8.78,3.2c-4.93,0-8.92-2.23-12-6.65l4.39-4.24c1.64,3.09,4.06,4.65,7.31,4.65a5.6,5.6,0,0,0,3.88-1.38,4.59,4.59,0,0,0,1.51-3.55,4.11,4.11,0,0,0-1.87-3.5,30.08,30.08,0,0,0-5.23-2.22,16,16,0,0,1-6.29-3.7,7.89,7.89,0,0,1-1.94-5.57A9.46,9.46,0,0,1,172,215.6a11,11,0,0,1,7.79-2.89,15.19,15.19,0,0,1,10.27,3.89l-3.58,4.64a7.3,7.3,0,0,0-5.64-2.81,5.46,5.46,0,0,0-3.5,1.13A3.25,3.25,0,0,0,176,222.19Z"/></g></svg>