<svg id="Layer_1" data-name="Layer 1" xmlns="http://www.w3.org/2000/svg" width="663.83" height="133.36" viewBox="0 0 663.83 133.36"><title>ethernode_logo_black</title><polygon points="31.62 0 60.42 112.19 82.36 51.41 31.62 0"/><polygon points="50.74 133.36 21.94 21.17 0 81.95 50.74 133.36"/><path d="M368,216.93H344.94v14.35h22.23v10.9H344.94v17.4H368v10.9H332.39V206H368Z" transform="translate(-203.36 -163.24)"/><path d="M404.17,270.48h-12.6V216.93H377.19V206h41.47v10.89H404.17Z" transform="translate(-203.36 -163.24)"/><path d="M441.74,231H469V206h12.59v64.44H469V241.89H441.74v28.59H429.19V206h12.55Z" transform="translate(-203.36 -163.24)"/><path d="M534.38,216.93H511.31v14.35h22.22v10.9H511.31v17.4h23.07v10.9H498.76V206h35.62Z" transform="translate(-203.36 -163.24)"/><path d="M561.52,244.58v25.9H549V206h18.64q11,0,16.42,4.52c4.24,3.54,6.37,8.4,6.37,14.49s-1.94,10.85-5.81,14.2a17.35,17.35,0,0,1-8.87,4.1L596,270.48H580.54l-17.37-25.9Zm0-8.87h3.68c8,0,12.27-3.58,12.27-9.86,0-6.46-4-9.67-12.08-9.67h-3.87Z" transform="translate(-203.36 -163.24)"/><path d="M606.64,270.48V204.57h8.69l39.25,44.87V206h12.55v65.72H658.4l-39.2-44.87v43.59Z" transform="translate(-203.36 -163.24)"/><path d="M715.94,204.57a33.38,33.38,0,0,1,24.29,9.77,32.26,32.26,0,0,1,10,24,31.9,31.9,0,0,1-10.05,23.92q-10,9.71-24.63,9.68c-9.72,0-17.83-3.26-24.39-9.82a32.56,32.56,0,0,1-9.82-24,31.82,31.82,0,0,1,10.15-23.88A34.15,34.15,0,0,1,715.94,204.57Zm-.15,11.51a20.54,20.54,0,0,0-15.19,6.47,21.48,21.48,0,0,0-6.37,15.66,21.82,21.82,0,0,0,6.32,15.71,21,21,0,0,0,30.44,0,22.75,22.75,0,0,0,0-31.37A20.55,20.55,0,0,0,715.79,216.08Z" transform="translate(-203.36 -163.24)"/><path d="M764.22,270.48V206h18.45q14.08,0,23.07,7.45a30.72,30.72,0,0,1,8.49,10.95,32,32,0,0,1,3,13.73,32.54,32.54,0,0,1-3.06,13.77A31.7,31.7,0,0,1,805.55,263q-8.77,7.43-23,7.45Zm12.55-10.9h3.4c7.69,0,13.4-1.69,17.17-5.14a21.89,21.89,0,0,0,7-16.23,20.38,20.38,0,0,0-7-16c-3.87-3.49-9.58-5.24-17.17-5.24h-3.4Z" transform="translate(-203.36 -163.24)"/><path d="M867.19,216.93H844.12v14.35h22.22v10.9H844.12v17.4h23.07v10.9H831.57V206h35.62Z" transform="translate(-203.36 -163.24)"/></svg>