<svg xmlns="http://www.w3.org/2000/svg" x="0px" y="0px"
width="50" height="50"
viewBox="0 0 192 192"
style=" fill:#000000;"><g fill="none" fill-rule="nonzero" stroke="none" stroke-width="1" stroke-linecap="butt" stroke-linejoin="miter" stroke-miterlimit="10" stroke-dasharray="" stroke-dashoffset="0" font-family="none" font-weight="none" font-size="none" text-anchor="none" style="mix-blend-mode: normal"><path d="M0,192v-192h192v192z" fill="none"></path><g fill="#cccccc"><g id="surface1"><path d="M72.96,7.68c-8.655,0 -15.06,3.525 -19.32,8.52c-4.26,4.995 -6.69,11.235 -8.88,17.04c-2.19,5.805 -4.17,11.235 -6.84,14.88c-2.13,2.91 -4.38,4.77 -8.04,5.4c-0.51,-1.32 -1.215,-2.565 -2.16,-3.6c1.845,-2.04 3,-4.74 3,-7.68c0,-6.315 -5.205,-11.52 -11.52,-11.52c-6.315,0 -11.52,5.205 -11.52,11.52c0,2.94 1.155,5.64 3,7.68c-1.845,2.04 -3,4.74 -3,7.68v122.88c0,2.115 1.725,3.84 3.84,3.84h15.36c2.115,0 3.84,-1.725 3.84,-3.84v-8.88l43.68,-18.24c1.47,-0.585 2.415,-2.025 2.4,-3.6v-138.24c0,-2.115 -1.725,-3.84 -3.84,-3.84zM118.32,7.68c-1.83,0.345 -3.15,1.965 -3.12,3.84v138.24c-0.015,1.575 0.93,3.015 2.4,3.6l43.68,18.24v8.88c0,2.115 1.725,3.84 3.84,3.84h15.36c2.115,0 3.84,-1.725 3.84,-3.84v-122.88c0,-2.94 -1.155,-5.64 -3,-7.68c1.845,-2.04 3,-4.74 3,-7.68c0,-6.315 -5.205,-11.52 -11.52,-11.52c-6.315,0 -11.52,5.205 -11.52,11.52c0,2.94 1.155,5.64 3,7.68c-0.945,1.035 -1.65,2.28 -2.16,3.6c-3.66,-0.63 -5.91,-2.49 -8.04,-5.4c-2.67,-3.645 -4.65,-9.075 -6.84,-14.88c-2.19,-5.805 -4.62,-12.045 -8.88,-17.04c-4.26,-4.995 -10.665,-8.52 -19.32,-8.52c-0.12,0 -0.24,0 -0.36,0c-0.12,0 -0.24,0 -0.36,0zM69.12,16.08v131.04l-38.4,16.08v-102.72c5.7,-1.08 10.47,-3.75 13.44,-7.8c3.66,-4.995 5.655,-11.085 7.8,-16.8c2.145,-5.715 4.35,-10.995 7.44,-14.64c2.37,-2.79 5.565,-4.395 9.72,-5.16zM122.88,16.08c4.155,0.765 7.35,2.37 9.72,5.16c3.09,3.645 5.295,8.925 7.44,14.64c2.145,5.715 4.14,11.805 7.8,16.8c2.97,4.05 7.74,6.72 13.44,7.8v102.72l-38.4,-16.08zM19.2,38.4c2.16,0 3.84,1.68 3.84,3.84c0,2.16 -1.68,3.84 -3.84,3.84c-2.16,0 -3.84,-1.68 -3.84,-3.84c0,-2.16 1.68,-3.84 3.84,-3.84zM172.8,38.4c2.16,0 3.84,1.68 3.84,3.84c0,2.16 -1.68,3.84 -3.84,3.84c-2.16,0 -3.84,-1.68 -3.84,-3.84c0,-2.16 1.68,-3.84 3.84,-3.84zM19.2,53.76c2.085,0 3.72,1.545 3.84,3.6c0,0.075 0,0.165 0,0.24v111.36c0,0.12 0,0.24 0,0.36v7.32h-7.68v-119.04c0,-2.175 1.665,-3.84 3.84,-3.84zM172.8,53.76c2.175,0 3.84,1.665 3.84,3.84v119.04h-7.68v-7.08c0.015,-0.195 0.015,-0.405 0,-0.6v-111.36c0,-0.12 0,-0.24 0,-0.36c0.18,-1.995 1.8,-3.48 3.84,-3.48zM61.44,88.32c-2.115,0 -3.84,3.435 -3.84,7.68c0,4.245 1.725,7.68 3.84,7.68c2.115,0 3.84,-3.435 3.84,-7.68c0,-4.245 -1.725,-7.68 -3.84,-7.68zM130.56,88.32c-2.115,0 -3.84,3.435 -3.84,7.68c0,4.245 1.725,7.68 3.84,7.68c2.115,0 3.84,-3.435 3.84,-7.68c0,-4.245 -1.725,-7.68 -3.84,-7.68z"></path></g></g></g></svg>