<svg xmlns="http://www.w3.org/2000/svg" width="250" height="250" viewBox="0 0 250 250"><defs><style>.cls-1{fill:#fff;}</style></defs><title>assets</title><g id="Layer_2" data-name="Layer 2"><path class="cls-1" d="M125,33.32A91.68,91.68,0,1,0,216.68,125,91.79,91.79,0,0,0,125,33.32Zm0,170.44A78.76,78.76,0,1,1,203.76,125,78.85,78.85,0,0,1,125,203.76Z"/><path class="cls-1" d="M162.7,148.25l-32.85-22.8V72.33a4.85,4.85,0,1,0-9.69,0V128a4.82,4.82,0,0,0,2.08,4l34.94,24.25a4.84,4.84,0,1,0,5.52-8Z"/></g></svg>