<svg xmlns="http://www.w3.org/2000/svg" width="250" height="250" viewBox="0 0 250 250"><defs><style>.cls-1{fill:#fff;}</style></defs><title>assets</title><g id="Layer_2" data-name="Layer 2"><path class="cls-1" d="M204.67,28.47H45.33A24.51,24.51,0,0,0,20.85,53v5.46A24.51,24.51,0,0,0,45.33,82.89H204.67a24.51,24.51,0,0,0,24.48-24.48V53A24.51,24.51,0,0,0,204.67,28.47Zm14.79,29.94A14.81,14.81,0,0,1,204.67,73.2H45.33A14.81,14.81,0,0,1,30.54,58.41V53A14.8,14.8,0,0,1,45.33,38.16H204.67A14.8,14.8,0,0,1,219.46,53Z"/><circle class="cls-1" cx="59.32" cy="55.68" r="7.37"/><circle class="cls-1" cx="101.73" cy="55.68" r="7.37"/><path class="cls-1" d="M204.67,97.79H45.33a24.51,24.51,0,0,0-24.48,24.48v5.46a24.51,24.51,0,0,0,24.48,24.48H204.67a24.51,24.51,0,0,0,24.48-24.48v-5.46A24.51,24.51,0,0,0,204.67,97.79Zm14.79,29.94a14.8,14.8,0,0,1-14.79,14.79H45.33a14.8,14.8,0,0,1-14.79-14.79v-5.46a14.81,14.81,0,0,1,14.79-14.79H204.67a14.81,14.81,0,0,1,14.79,14.79Z"/><circle class="cls-1" cx="59.32" cy="125" r="7.37"/><circle class="cls-1" cx="101.73" cy="125" r="7.37"/><path class="cls-1" d="M204.67,167.11H45.33a24.51,24.51,0,0,0-24.48,24.48v5.46a24.51,24.51,0,0,0,24.48,24.48H204.67a24.51,24.51,0,0,0,24.48-24.48v-5.46A24.51,24.51,0,0,0,204.67,167.11Zm14.79,29.94a14.8,14.8,0,0,1-14.79,14.79H45.33a14.8,14.8,0,0,1-14.79-14.79v-5.46A14.81,14.81,0,0,1,45.33,176.8H204.67a14.81,14.81,0,0,1,14.79,14.79Z"/><circle class="cls-1" cx="59.32" cy="194.32" r="7.37"/><circle class="cls-1" cx="101.73" cy="194.32" r="7.37"/></g></svg>