<svg xmlns="http://www.w3.org/2000/svg" width="60" height="18">
    <path fill="#B5A3E6" fill-rule="evenodd" d="M10.313 14.438h-.938v2.656h-.003l.003.015c0 .492-.42.891-.937.891h-7.5C.42 18 0 17.601 0 17.109l.003-.015H0V.938h.003C.003.932 0 .927 0 .922 0 .43.42.031.938.031h9.375c4.142 0 7.5 3.225 7.5 7.203 0 3.979-3.358 7.204-7.5 7.204zM29.062.031c5.178 0 9.375 4.023 9.375 8.985 0 4.961-4.197 8.984-9.375 8.984-5.177 0-9.374-4.023-9.374-8.984 0-4.962 4.197-8.985 9.374-8.985zM60 17.431c0 .306-.26.555-.58.555H38.152c-.026.003-.048.014-.074.014a.57.57 0 0 1-.578-.563c0-.122.048-.229.116-.321l-.009-.018L48.165.449h.023a.566.566 0 0 1 .557-.444c.28 0 .502.192.557.444h.023L60 17.209l-.037.048a.51.51 0 0 1 .037.174z"/>
</svg>
