<?xml version="1.0" standalone="no"?>
<!DOCTYPE svg PUBLIC "-//W3C//DTD SVG 20010904//EN"
 "http://www.w3.org/TR/2001/REC-SVG-20010904/DTD/svg10.dtd">
<svg version="1.0" xmlns="http://www.w3.org/2000/svg"
 width="972.000000pt" height="987.000000pt" viewBox="0 0 972.000000 987.000000"
 preserveAspectRatio="xMidYMid meet">

<g transform="translate(0.000000,987.000000) scale(0.100000,-0.100000)"
fill="#000000" stroke="none">
<path d="M4360 8519 c-21 -4 -4 -6 40 -4 41 1 58 0 38 -2 -66 -7 -41 -21 55
-29 50 -4 81 -10 67 -12 -14 -2 -79 1 -146 8 -117 11 -126 11 -258 -16 -76
-15 -144 -33 -151 -40 -7 -7 -32 -72 -56 -144 -47 -144 -46 -155 16 -145 28 5
28 4 8 -7 -32 -16 -29 -26 10 -31 l32 -4 -32 -1 c-18 -1 -33 -6 -33 -11 0 -10
116 -125 164 -162 l29 -23 -5 22 c-5 18 -1 23 20 28 15 3 43 10 62 14 19 5 71
11 115 15 66 6 85 11 106 31 23 22 34 25 89 22 62 -3 63 -3 74 -38 9 -28 19
-38 59 -52 27 -10 66 -19 87 -20 46 -2 250 62 250 78 0 7 -60 16 -162 24 -89
8 -157 15 -150 18 7 2 80 -1 163 -7 188 -14 191 -12 158 79 -12 33 -20 62 -17
65 2 2 15 -25 28 -60 13 -36 30 -65 36 -65 7 0 20 -7 28 -16 14 -14 33 -14
160 -5 214 16 237 11 36 -8 -154 -14 -175 -18 -178 -34 -3 -16 1 -18 41 -12
48 7 145 -9 189 -31 36 -19 100 4 150 53 23 22 42 33 52 30 8 -3 68 -41 133
-85 65 -43 123 -82 130 -85 8 -5 27 25 58 89 61 129 62 128 -115 109 -74 -8
-162 -14 -195 -13 -41 0 -6 6 105 18 91 10 178 19 194 19 16 1 27 4 23 7 -6 7
-134 52 -305 109 -56 19 -110 39 -120 44 -15 9 -15 10 3 11 12 0 25 -4 30 -9
6 -5 46 -20 90 -34 44 -14 132 -43 194 -66 106 -37 116 -39 133 -25 11 11 28
15 50 11 32 -4 104 28 245 109 54 31 41 41 -69 54 -128 14 -149 22 -43 15 52
-4 75 -2 65 4 -20 12 -260 91 -277 91 -8 0 -11 5 -7 12 4 7 3 8 -4 4 -7 -4
-58 4 -114 18 -121 30 -375 75 -433 78 -38 1 -39 1 -6 5 44 6 341 -45 486 -83
15 -4 17 -3 5 4 -14 9 -169 43 -325 73 -33 6 -143 12 -244 14 l-185 3 -43 -30
c-48 -35 -47 -33 -33 -57 7 -15 28 -20 112 -25 128 -9 456 -53 407 -55 -20 -1
-126 10 -235 24 -230 30 -276 30 -196 0 30 -11 49 -21 44 -23 -5 -1 -39 8 -75
21 -89 33 -97 24 -61 -75 14 -40 28 -84 30 -98 6 -30 -32 57 -52 123 -11 34
-22 51 -40 57 -13 5 -24 14 -24 21 0 6 -12 9 -27 6 -16 -2 -22 -2 -15 0 13 5
17 22 5 24 -5 0 -55 7 -113 14 l-105 14 108 -5 c59 -3 114 -7 122 -10 31 -12
13 12 -26 34 -22 13 -38 26 -35 29 3 3 23 -5 44 -19 32 -22 44 -24 84 -19 25
4 58 17 73 29 l28 22 -309 -2 c-170 -2 -325 -6 -344 -9z m439 -113 c-9 -9
-115 -46 -129 -45 -17 1 98 48 119 48 8 1 12 -1 10 -3z m-151 -51 c-10 -10
-301 -106 -311 -102 -6 2 57 26 139 54 140 48 185 60 172 48z m541 -16 c28
-12 49 -24 47 -26 -5 -5 -126 37 -126 43 0 9 31 2 79 -17z m611 -4 c91 -12
147 -23 125 -23 -22 -1 -119 9 -215 22 -96 13 -152 24 -125 24 28 0 124 -10
215 -23z m-432 -61 c72 -31 22 -22 -61 11 -39 16 -50 23 -29 19 18 -3 59 -17
90 -30z m-1049 -28 c-9 -9 -115 -46 -129 -45 -17 1 98 48 119 48 8 1 12 -1 10
-3z m-151 -51 c-9 -10 -150 -56 -160 -53 -6 2 23 16 63 30 70 25 109 34 97 23z
m242 -130 c128 -13 197 -23 160 -23 -36 0 -166 10 -290 23 -128 13 -197 23
-160 23 36 0 166 -10 290 -23z"/>
<path d="M4095 8473 c-38 -8 -74 -18 -79 -23 -7 -8 15 -3 149 28 65 16 6 12
-70 -5z"/>
<path d="M3845 8410 c-116 -34 -307 -101 -302 -106 1 -2 61 17 132 41 72 25
171 56 220 69 50 13 81 25 70 25 -11 0 -65 -13 -120 -29z"/>
<path d="M3845 8390 c-121 -35 -277 -90 -289 -101 -5 -4 61 -42 147 -84 122
-61 159 -75 173 -67 11 6 34 58 60 138 24 71 43 132 43 137 1 12 -30 7 -134
-23z"/>
<path d="M3420 8257 c-70 -31 -134 -65 -100 -53 29 9 171 74 177 80 11 10 0 7
-77 -27z"/>
<path d="M3371 8215 c-79 -36 -148 -62 -154 -58 -5 3 -7 1 -3 -5 3 -6 -3 -13
-14 -17 -12 -4 -91 -76 -177 -161 -86 -85 -158 -152 -161 -149 -3 2 50 59 117
126 66 67 119 125 116 127 -3 3 3 12 13 19 17 15 -17 -3 -125 -65 -34 -20 -61
-37 -59 -39 2 -2 20 6 40 18 20 11 36 19 36 16 0 -2 -25 -20 -55 -38 -41 -25
-58 -42 -66 -68 -7 -19 -21 -49 -31 -68 -18 -29 -18 -33 -3 -33 10 0 13 -4 8
-12 -4 -7 6 -4 22 7 140 92 258 160 419 240 l190 95 24 -22 c22 -21 24 -29 19
-80 -3 -32 -4 -58 -2 -58 2 0 27 9 57 19 29 11 101 34 161 52 59 19 107 39
107 46 0 9 -316 174 -331 173 -2 -1 -69 -30 -148 -65z m-291 -146 c-25 -17
-76 -42 -68 -34 13 14 62 44 73 44 6 0 3 -4 -5 -10z"/>
<path d="M6095 8172 c-112 -63 -120 -69 -123 -99 -1 -18 2 -33 6 -33 5 0 40
-24 78 -53 38 -30 94 -71 125 -93 30 -21 108 -79 173 -129 66 -49 128 -97 140
-105 12 -8 45 -32 75 -53 67 -50 67 -48 -52 183 -50 96 -120 232 -155 303 -55
109 -67 127 -87 127 -13 0 -27 5 -30 10 -10 17 -26 11 -150 -58z"/>
<path d="M6310 8231 c0 -5 52 -112 116 -238 65 -125 138 -270 163 -320 36 -72
51 -93 66 -93 12 0 25 -4 31 -9 10 -10 56 15 263 142 74 45 135 87 135 92 0
17 -156 123 -172 117 -9 -3 -13 -1 -9 5 3 5 1 10 -6 10 -7 0 -43 19 -81 42
-64 40 -133 75 -403 210 -57 28 -103 47 -103 42z m768 -425 c7 -12 -95 59
-118 82 -8 8 13 -4 48 -28 35 -24 66 -48 70 -54z"/>
<path d="M3258 8184 c-39 -21 -35 -28 5 -8 37 19 44 24 31 24 -5 -1 -21 -8
-36 -16z"/>
<path d="M3775 8060 c-27 -10 -106 -37 -175 -58 -69 -22 -160 -57 -203 -77
l-77 -37 5 -37 c4 -20 8 -47 11 -61 2 -15 -7 -45 -24 -75 -22 -41 -33 -51 -57
-53 -19 -2 -50 -20 -84 -50 l-54 -48 54 -36 c30 -19 89 -58 132 -84 43 -27 94
-59 113 -71 19 -13 40 -23 47 -23 7 0 30 20 51 45 21 25 55 57 75 71 35 23 39
29 45 85 7 71 11 79 35 79 24 0 45 32 70 106 25 76 59 153 60 136 1 -7 -10
-38 -23 -70 -13 -31 -29 -75 -36 -97 -7 -22 -18 -46 -24 -54 -15 -20 89 -5
129 18 26 16 30 23 27 58 -3 55 17 70 114 84 78 10 144 39 144 62 0 7 -43 52
-95 100 -81 76 -97 87 -114 78 -11 -6 -27 -8 -35 -5 -10 4 -18 -1 -22 -12 -17
-53 -58 -144 -62 -139 -3 3 7 33 21 67 49 115 41 130 -48 98z"/>
<path d="M5893 7996 c-11 -23 -32 -66 -47 -96 l-27 -54 23 -18 c13 -10 26 -18
29 -18 4 0 18 -18 32 -39 16 -25 40 -44 62 -52 38 -14 38 -16 19 -81 -5 -16 2
-18 60 -18 55 0 67 3 80 21 11 17 20 20 45 14 17 -4 31 -12 31 -18 0 -7 3 -21
6 -33 5 -19 -1 -22 -78 -36 -94 -18 -174 -56 -142 -69 16 -6 14 -8 -8 -8 -16
-1 -28 -4 -28 -7 0 -3 17 -30 38 -60 34 -50 49 -61 182 -131 80 -41 159 -86
176 -99 l31 -23 29 39 c29 39 44 49 44 30 0 -5 -3 -10 -7 -10 -5 0 -19 -16
-32 -35 l-24 -35 44 -73 c41 -67 49 -74 119 -109 41 -20 93 -40 116 -43 39 -6
41 -5 58 32 14 30 28 43 72 62 29 13 54 27 54 31 0 4 -26 21 -57 38 -32 17
-74 47 -93 67 -52 55 -132 112 -173 123 -32 9 -38 8 -50 -11 -8 -12 -18 -19
-22 -15 -4 4 0 14 9 23 9 9 30 37 47 61 23 34 28 48 20 58 -8 10 -7 17 3 26 9
6 19 9 25 6 16 -10 60 51 54 74 -5 19 -11 21 -72 15 -175 -15 -354 -25 -426
-24 -73 1 344 36 453 38 23 1 42 5 42 11 0 5 -28 30 -62 55 -35 25 -94 70
-133 100 -38 29 -97 73 -131 97 -105 75 -236 172 -272 203 -22 18 -47 30 -67
30 -28 1 -34 -4 -52 -39z"/>
<path d="M4901 7941 c-100 -32 -95 -46 10 -28 87 16 129 34 108 48 -19 12 -21
11 -118 -20z"/>
<path d="M2769 7894 c-160 -113 -211 -156 -201 -166 16 -16 173 19 189 42 8
11 23 20 34 20 12 0 23 10 29 28 6 15 17 39 26 54 13 24 28 88 20 88 -2 0 -46
-30 -97 -66z m35 5 c-32 -23 -81 -57 -109 -77 -27 -19 -45 -30 -38 -23 17 20
187 140 197 141 5 0 -17 -19 -50 -41z m-164 -112 c0 -2 -10 -12 -22 -23 l-23
-19 19 23 c18 21 26 27 26 19z"/>
<path d="M6956 7703 c-70 -43 -135 -82 -145 -88 -9 -5 -38 -22 -63 -38 -74
-43 -62 -56 138 -147 93 -42 201 -91 239 -109 106 -49 163 -76 240 -111 39
-18 98 -45 132 -61 72 -34 83 -35 83 -12 0 16 -56 123 -70 133 -12 9 -89 134
-84 139 5 6 -2 16 99 -139 105 -160 94 -145 101 -138 7 8 -45 198 -62 226 -8
12 -11 22 -7 22 11 0 -215 227 -252 253 -17 12 -24 14 -18 6 7 -9 9 -19 5 -23
-4 -4 -1 -6 7 -4 8 2 15 -7 17 -22 3 -13 8 -27 12 -30 9 -6 92 -130 92 -137 0
-17 -101 120 -119 161 -5 12 -28 40 -74 92 -21 24 -37 45 -35 47 5 9 -47 44
-59 40 -6 -2 -14 1 -18 6 -11 19 -29 12 -159 -66z m209 37 c10 -11 16 -20 13
-20 -3 0 -13 9 -23 20 -10 11 -16 20 -13 20 3 0 13 -9 23 -20z m280 -252 l110
-113 -115 110 c-63 61 -116 111 -119 113 -2 1 0 2 5 2 5 0 59 -51 119 -112z"/>
<path d="M2618 7716 c-57 -8 -84 -18 -105 -36 -17 -15 -22 -17 -13 -6 27 35
-13 6 -99 -71 -86 -79 -85 -76 -61 -165 l12 -47 92 82 c50 45 137 120 194 166
56 46 102 85 102 87 0 6 -39 3 -122 -10z m-138 -59 c0 -2 -17 -19 -37 -38
l-38 -34 34 38 c33 34 41 42 41 34z m-80 -70 c0 -2 -17 -19 -37 -38 l-38 -34
34 38 c33 34 41 42 41 34z"/>
<path d="M3090 7525 c-12 -23 -10 -30 33 -95 47 -69 48 -70 91 -70 58 0 69
-25 34 -78 -14 -20 -33 -50 -43 -66 l-19 -29 54 7 c59 8 99 30 170 94 52 47
56 40 -65 115 -38 24 -107 67 -153 95 -46 29 -85 52 -86 52 -1 0 -9 -11 -16
-25z"/>
<path d="M2249 7455 c-24 -24 -44 -48 -44 -52 -1 -5 -6 -17 -12 -28 -6 -11
-18 -54 -27 -95 -9 -41 -19 -83 -22 -94 -10 -32 11 -14 107 92 l93 104 -13 46
c-20 76 -30 80 -82 27z m11 -10 c-24 -25 -46 -45 -49 -45 -3 0 15 20 39 45 24
25 46 45 49 45 3 0 -15 -20 -39 -45z"/>
<path d="M6681 7486 c-9 -10 -5 -24 15 -60 14 -26 24 -50 21 -53 -3 -3 -18 20
-34 51 -15 31 -32 56 -38 56 -6 0 -24 -13 -39 -29 l-28 -29 62 -36 c34 -20 67
-36 73 -34 7 1 26 -7 44 -17 26 -16 33 -29 44 -78 9 -42 28 -81 70 -143 33
-46 59 -88 59 -93 0 -5 12 -16 26 -26 25 -16 33 -16 130 -1 56 9 118 16 136
15 18 0 -27 -11 -100 -23 -144 -24 -171 -37 -135 -64 12 -9 54 -43 95 -74 40
-32 102 -79 138 -106 36 -27 108 -81 160 -121 83 -62 95 -69 98 -51 3 18 11
20 71 20 l69 0 6 31 c3 17 6 35 6 39 0 4 -30 20 -66 36 -59 25 -64 29 -48 41
10 7 35 13 55 13 21 0 50 5 65 10 26 10 27 12 20 73 -4 48 -11 66 -30 82 -24
20 -60 111 -50 126 7 12 6 12 -126 -11 -63 -11 -131 -19 -150 -19 -19 1 35 13
120 28 117 20 156 30 158 42 3 14 -28 31 -238 127 -98 44 -165 75 -185 85 -56
28 -451 207 -456 207 -4 0 -12 -6 -18 -14z"/>
<path d="M6532 7353 c-36 -52 -35 -57 1 -29 38 29 44 40 28 51 -5 3 -18 -7
-29 -22z"/>
<path d="M2132 7337 c-24 -26 -29 -42 -9 -31 6 4 1 -5 -12 -19 -30 -33 -42
-36 -15 -4 10 12 4 9 -14 -7 -32 -29 -44 -54 -19 -40 6 4 1 -5 -12 -19 -30
-33 -42 -36 -15 -4 10 12 4 9 -14 -7 -33 -31 -45 -59 -14 -35 14 11 13 10 -2
-9 -21 -24 -32 -29 -20 -9 5 8 2 8 -9 -2 -18 -14 -24 -36 -7 -26 16 10 11 -1
-7 -16 -15 -12 -16 -12 -8 1 5 9 0 8 -13 -4 -26 -23 -30 -44 -4 -25 14 11 13
10 -2 -9 -21 -24 -32 -29 -20 -9 5 8 2 8 -9 -2 -19 -15 -23 -36 -5 -25 7 4 8
3 4 -5 -4 -6 -11 -9 -16 -6 -4 3 -13 -2 -19 -9 -23 -28 31 -5 104 44 39 26 89
57 113 70 28 16 42 31 43 44 0 12 8 53 19 91 10 39 14 72 9 73 -5 2 -7 8 -3
13 10 16 -2 9 -24 -14z"/>
<path d="M7605 7304 c13 -89 42 -189 57 -192 15 -3 45 33 50 60 2 7 6 16 11
19 4 3 -3 14 -15 25 -22 19 -23 19 -8 -1 11 -15 7 -14 -13 4 -28 25 -38 43
-12 21 31 -26 13 7 -30 54 l-45 48 5 -38z m35 -19 c13 -14 21 -25 18 -25 -2 0
-15 11 -28 25 -13 14 -21 25 -18 25 2 0 15 -11 28 -25z"/>
<path d="M5109 7147 c-86 -32 -89 -45 -32 -120 26 -34 52 -66 59 -72 6 -5 38
-46 70 -90 32 -44 72 -96 89 -116 16 -20 39 -48 51 -62 11 -14 49 -64 84 -111
55 -74 67 -85 87 -80 14 4 34 -1 49 -11 25 -16 27 -16 62 8 46 30 214 132 227
138 6 2 27 15 47 29 35 23 38 28 38 76 0 50 -1 51 -77 125 -94 90 -199 167
-242 175 l-31 7 -2 -59 -1 -59 -6 64 -6 64 -41 12 c-22 7 -73 33 -113 58 l-72
47 -92 -1 c-68 0 -107 -6 -148 -22z m447 -467 c-13 -96 -24 -159 -25 -140 -2
52 44 391 47 350 1 -19 -9 -114 -22 -210z"/>
<path d="M7726 7155 c-49 -49 -41 -87 23 -116 49 -22 111 -33 111 -19 0 4 -8
14 -17 21 -15 12 -16 12 -8 -1 8 -13 7 -13 -8 -1 -19 15 -23 26 -6 15 7 -4 10
-1 7 7 -3 8 -10 14 -16 14 -6 0 -17 7 -24 15 -11 12 -11 12 5 1 25 -19 21 2
-5 25 -12 10 -18 13 -14 7 10 -19 1 -16 -15 4 -10 11 -10 14 -1 9 17 -10 15 9
-2 23 -11 9 -18 8 -30 -4z"/>
<path d="M3440 7115 c-16 -9 -40 -12 -67 -8 -71 9 -91 -1 -118 -62 -26 -61
-33 -63 -114 -44 -40 9 -47 7 -90 -21 -25 -16 -39 -30 -30 -30 9 0 33 11 53
25 20 14 39 25 43 25 14 0 -23 -32 -53 -46 -60 -29 -50 -53 87 -210 67 -76
133 -151 148 -166 41 -42 42 -43 213 -235 89 -101 168 -183 175 -183 12 0 14
15 10 78 l-6 77 11 -77 c12 -93 29 -101 74 -35 16 23 34 48 41 55 7 7 34 45
60 85 26 39 51 74 54 77 4 3 25 32 47 64 l40 59 -52 40 c-99 78 -198 171 -237
223 -31 42 -39 62 -39 96 0 24 -8 78 -17 120 -16 70 -20 78 -50 92 -18 9 -33
11 -33 6 0 -5 11 -85 25 -177 14 -92 25 -181 23 -198 -3 -31 -52 284 -57 363
-1 20 -6 22 -58 22 -32 -1 -69 -7 -83 -15z m248 -745 c0 -19 -11 26 -23 100
-13 74 -23 155 -23 180 0 26 10 -17 23 -100 13 -80 23 -161 23 -180z"/>
<path d="M1999 7061 c-104 -66 -209 -147 -209 -162 0 -6 5 -7 12 -3 7 4 8 3 4
-5 -4 -6 -11 -9 -16 -6 -5 3 -14 -3 -19 -14 -14 -26 -14 -34 1 -25 7 4 8 3 4
-5 -4 -6 -11 -9 -16 -6 -12 7 -33 -32 -25 -45 4 -6 1 -9 -7 -8 -7 2 -13 -4
-13 -12 0 -12 15 -16 65 -18 l65 -2 40 62 c22 35 81 118 132 185 51 68 89 123
84 123 -4 0 -50 -27 -102 -59z m-159 -125 c0 -2 -8 -10 -17 -17 -16 -13 -17
-12 -4 4 13 16 21 21 21 13z"/>
<path d="M4765 7073 c-33 -15 -62 -28 -64 -30 -2 -1 1 -21 7 -43 9 -37 7 -50
-18 -109 l-28 -68 35 -47 c18 -26 38 -44 43 -41 5 3 14 22 20 43 10 34 35 99
94 250 11 30 22 49 24 43 2 -5 -4 -25 -12 -43 -8 -18 -26 -64 -40 -103 -13
-38 -35 -101 -49 -138 l-25 -68 39 -25 c21 -13 43 -24 48 -24 9 0 28 56 47
135 9 38 52 92 58 73 3 -7 10 -31 16 -53 16 -54 82 -120 155 -157 68 -35 153
-97 238 -175 47 -43 65 -53 93 -53 55 0 45 33 -43 149 -194 253 -262 340 -309
397 -28 34 -56 70 -62 80 -10 17 -12 18 -24 3 -7 -9 -28 -19 -45 -23 -31 -5
-33 -4 -33 23 0 28 -1 29 -52 30 -37 0 -72 -8 -113 -26z"/>
<path d="M7700 7034 c0 -3 11 -22 25 -42 14 -20 25 -44 25 -53 0 -9 22 -47 50
-85 27 -38 80 -112 116 -164 37 -52 72 -99 78 -105 6 -5 34 -43 61 -83 56 -82
76 -104 71 -75 -10 50 -100 303 -121 339 -14 23 -22 44 -19 47 9 8 -26 68 -36
62 -5 -3 -12 0 -16 6 -5 8 -3 9 6 4 8 -5 11 -3 8 6 -3 8 -10 14 -15 14 -6 0
-15 4 -20 9 -5 5 -3 6 5 2 18 -11 15 2 -8 31 -11 14 -20 23 -20 19 0 -4 -11 1
-25 12 -14 11 -48 25 -75 32 -28 7 -53 16 -56 21 -6 10 -34 13 -34 3z m270
-194 c6 -11 8 -20 6 -20 -3 0 -10 9 -16 20 -6 11 -8 20 -6 20 3 0 10 -9 16
-20z"/>
<path d="M6987 6833 c20 -50 47 -99 63 -113 15 -14 47 -60 70 -104 38 -70 43
-85 41 -137 -2 -45 4 -69 23 -108 15 -28 26 -57 26 -66 0 -11 11 -15 38 -15
21 0 62 -7 90 -15 l52 -16 0 -45 0 -44 72 55 73 55 -4 67 c-4 78 -31 160 -64
191 -12 11 -54 45 -94 74 -123 91 -242 180 -325 246 -44 34 -84 62 -88 62 -5
0 7 -39 27 -87z"/>
<path d="M7670 6835 c0 -41 3 -56 13 -53 19 7 21 82 2 98 -13 11 -15 6 -15
-45z"/>
<path d="M7750 6888 c0 -2 7 -25 15 -51 19 -62 5 -97 -37 -97 -15 0 -28 -2
-28 -5 0 -10 32 -58 80 -120 43 -55 47 -67 53 -132 l7 -72 -32 10 c-53 15 -66
12 -61 -15 4 -21 12 -24 101 -34 l97 -10 -100 4 c-135 6 -145 -1 -109 -82 14
-33 34 -75 45 -95 10 -20 19 -43 19 -50 0 -21 -44 59 -65 119 -30 82 -39 64
-31 -60 3 -62 3 -118 -2 -125 -11 -17 -56 26 -83 78 -12 24 -33 61 -46 82
l-24 38 -31 -23 c-16 -13 -60 -45 -97 -71 -58 -42 -67 -53 -74 -90 -20 -109
-22 -100 22 -135 35 -28 41 -38 41 -71 0 -37 3 -40 69 -80 38 -22 73 -41 77
-41 4 0 26 15 49 34 38 31 43 42 60 118 l19 83 8 -44 c6 -36 3 -51 -14 -82
l-21 -38 24 -21 c13 -11 60 -45 104 -76 44 -30 114 -79 155 -109 65 -47 100
-65 100 -51 0 4 -37 91 -67 156 -8 19 -25 58 -38 85 -12 28 -31 70 -43 95 -66
143 -92 204 -88 207 4 4 25 -39 82 -164 14 -32 36 -80 49 -108 13 -27 44 -98
71 -157 26 -60 50 -108 54 -108 7 0 54 304 65 420 4 36 15 118 25 184 23 147
22 149 -95 164 l-80 11 83 -3 c45 -1 82 -1 82 0 0 5 -143 208 -150 214 -7 5
-118 161 -135 188 -5 9 -15 21 -21 27 -6 5 -26 31 -43 58 -27 40 -41 55 -41
45z m-305 -913 c50 -35 114 -80 143 -101 29 -20 51 -38 48 -41 -2 -3 -33 16
-68 40 -35 25 -100 71 -145 102 -46 31 -83 58 -83 60 0 12 21 0 105 -60z"/>
<path d="M3004 6862 c-10 -6 -44 -143 -44 -177 0 -8 26 -23 57 -35 32 -12 79
-34 105 -48 41 -23 52 -36 70 -82 23 -60 30 -193 15 -262 l-9 -36 44 -11 43
-10 -45 3 -45 3 -42 -151 c-49 -177 -62 -305 -42 -416 12 -70 12 -71 -14 -98
-32 -33 -34 -57 -8 -72 11 -5 22 -10 25 -10 3 0 63 66 133 148 71 81 154 174
184 207 140 149 236 269 232 286 -4 13 -24 23 -67 33 l-61 16 50 -6 c28 -3 58
-7 68 -10 9 -3 17 -1 17 3 0 9 -134 164 -280 323 -138 152 -176 193 -270 300
-52 58 -96 106 -99 107 -3 2 -11 -1 -17 -5z m436 -686 c52 -13 84 -24 70 -25
-14 0 -70 10 -125 23 -55 14 -86 25 -70 25 17 0 73 -11 125 -23z"/>
<path d="M2950 6823 c-7 -21 -16 -42 -20 -46 -12 -13 -77 9 -111 37 -17 14
-34 26 -39 26 -4 0 -1 -23 8 -51 16 -50 20 -53 80 -80 35 -16 67 -29 71 -29 4
0 13 34 20 77 7 42 15 82 18 90 3 7 1 13 -5 13 -6 0 -16 -17 -22 -37z"/>
<path d="M6966 6825 c12 -49 23 -75 33 -75 5 0 1 20 -8 45 -20 53 -35 71 -25
30z"/>
<path d="M6667 6824 c-35 -19 -31 -33 29 -128 24 -38 44 -75 44 -83 0 -28 19
-11 26 22 3 19 10 37 14 40 5 3 14 21 20 39 11 33 9 35 -37 80 -53 51 -56 52
-96 30z"/>
<path d="M4104 6783 c-27 -4 -106 -67 -93 -75 2 -2 20 -18 40 -36 l36 -33 47
69 c25 38 46 72 46 76 0 6 -21 6 -76 -1z"/>
<path d="M6177 6771 c-30 -10 -54 -26 -64 -41 -14 -23 -12 -29 26 -99 23 -41
41 -76 41 -79 0 -10 -38 44 -58 83 -34 65 -37 67 -66 59 -27 -6 -27 -8 -21
-63 10 -77 43 -133 95 -156 38 -17 42 -17 57 -2 14 14 15 21 5 44 -12 28 -12
28 6 7 l18 -21 31 36 c19 23 39 65 52 111 l20 74 -21 15 c-67 49 -69 50 -121
32z"/>
<path d="M4141 6695 c-64 -92 -63 -118 4 -168 32 -23 44 -39 44 -57 1 -51 -12
-50 -84 6 -39 29 -73 54 -76 54 -4 0 -22 -23 -40 -51 -18 -28 -37 -56 -44 -62
-6 -7 -34 -46 -63 -87 -28 -41 -70 -101 -92 -133 -31 -44 -37 -59 -26 -63 8
-3 70 9 138 26 67 18 150 38 184 45 33 7 85 20 114 29 30 9 63 16 74 15 30 -1
-239 -73 -428 -115 -63 -14 -80 -22 -89 -41 -8 -19 -7 -26 10 -40 11 -10 128
-122 259 -249 429 -414 558 -534 569 -531 6 2 11 68 13 174 l2 171 -63 12
c-74 14 -76 15 -105 57 -21 29 -22 40 -16 110 5 67 11 86 45 138 21 33 61 82
89 110 l50 49 0 96 0 96 -34 14 c-29 11 -32 15 -21 27 25 25 26 52 4 133 -20
76 -23 80 -49 80 -30 0 -30 0 -46 -92 -8 -46 -44 -74 -74 -58 -17 9 -20 21
-20 83 0 102 -25 164 -79 197 -23 14 -53 42 -67 63 -13 20 -26 37 -28 37 -2 0
-27 -34 -55 -75z m314 -410 c-44 -13 -98 -26 -120 -29 -22 -3 5 7 60 23 55 16
109 29 120 30 11 0 -16 -11 -60 -24z"/>
<path d="M1685 6732 c-10 -10 -5 -23 7 -16 7 4 8 3 4 -5 -4 -6 -11 -9 -16 -6
-5 3 -16 -8 -25 -24 -18 -36 -19 -45 -3 -35 7 4 8 3 4 -5 -4 -6 -11 -9 -16 -6
-9 5 -125 -213 -118 -221 5 -4 37 15 108 64 93 65 81 45 -15 -27 -51 -37 -93
-77 -105 -99 -15 -27 -19 -30 -15 -12 5 22 4 23 -5 7 -23 -37 -69 -157 -59
-157 5 0 9 -6 9 -14 0 -19 52 -38 82 -31 17 4 29 18 38 43 7 20 42 100 77 177
35 77 65 145 66 150 2 6 11 21 20 35 10 14 40 62 67 108 l49 83 -74 -2 c-41
-1 -77 -4 -80 -7z m-72 -167 c-3 -9 -8 -14 -10 -11 -3 3 -2 9 2 15 9 16 15 13
8 -4z m-152 -318 c-10 -9 -11 -8 -5 6 3 10 9 15 12 12 3 -3 0 -11 -7 -18z m-8
-32 c-3 -9 -8 -14 -10 -11 -3 3 -2 9 2 15 9 16 15 13 8 -4z"/>
<path d="M6805 6698 c-47 -105 -52 -130 -35 -185 12 -40 26 -60 63 -91 45 -37
107 -59 129 -46 14 9 -23 68 -69 110 -73 64 -50 68 67 13 58 -27 115 -49 126
-49 20 0 21 5 21 80 0 65 -3 82 -19 96 -18 17 -18 17 -3 -19 25 -61 16 -66
-13 -7 -27 54 -29 55 -126 97 -55 24 -104 43 -111 43 -6 0 -20 -19 -30 -42z"/>
<path d="M8060 6697 c0 -4 7 -21 15 -37 8 -16 11 -30 6 -32 -5 -2 4 -34 19
-73 15 -38 26 -73 23 -77 -2 -5 1 -8 7 -8 10 0 9 13 -7 78 -3 15 -5 34 -5 42
1 8 -12 38 -28 65 -16 28 -30 46 -30 42z"/>
<path d="M5910 6650 c-14 -10 -70 -44 -125 -75 -55 -32 -120 -71 -144 -87 -25
-15 -48 -28 -52 -28 -3 0 -9 -9 -12 -20 -4 -16 6 -25 61 -51 129 -59 154 -73
143 -77 -6 -2 -22 3 -34 10 -51 34 -184 87 -203 82 -14 -4 -27 -24 -42 -62
-11 -31 -21 -50 -21 -41 -1 9 6 36 14 59 11 32 12 46 4 56 -13 16 -55 19 -64
4 -4 -6 -1 -52 6 -103 12 -89 13 -91 26 -62 l13 30 -5 -41 c-6 -39 -4 -42 25
-54 33 -14 50 -37 50 -68 0 -24 160 -132 195 -132 21 0 275 77 285 87 7 7 -21
21 -87 44 -73 24 -103 61 -103 126 0 31 -5 42 -22 52 l-23 11 22 -6 c28 -7 30
3 37 155 l5 114 42 43 c46 47 50 63 9 34z"/>
<path d="M4626 6561 l-39 -40 26 -31 c29 -34 35 -30 55 40 5 19 13 43 17 53
13 31 -19 19 -59 -22z"/>
<path d="M4695 6579 c-42 -116 -45 -132 -29 -156 8 -14 30 -31 47 -38 l32 -14
-25 -9 c-19 -8 -6 -9 50 -5 48 3 70 1 62 -5 -10 -6 -1 -13 32 -22 34 -9 51
-21 71 -52 23 -35 25 -45 19 -98 -4 -33 -9 -60 -13 -60 -3 0 -24 -16 -46 -34
-49 -42 -43 -52 48 -71 35 -7 95 -26 133 -41 58 -23 74 -25 113 -18 44 9 46
11 56 55 5 25 22 60 38 78 15 18 27 36 27 39 0 4 -16 32 -35 62 -28 46 -44 60
-97 85 -45 21 -70 41 -88 68 -18 29 -29 37 -45 33 -11 -2 -56 -7 -100 -10
l-80 -5 102 16 c99 15 101 16 91 38 -6 14 -59 47 -146 92 -143 75 -208 96
-217 72z"/>
<path d="M8157 6497 c-6 -15 0 -76 9 -106 7 -22 17 -4 21 35 3 42 -20 97 -30
71z"/>
<path d="M8210 6395 c0 -5 5 -17 10 -25 5 -8 10 -10 10 -5 0 6 -5 17 -10 25
-5 8 -10 11 -10 5z"/>
<path d="M7150 6383 c0 -11 49 -90 50 -80 0 11 -39 87 -45 87 -3 0 -5 -3 -5
-7z"/>
<path d="M8186 6375 c-3 -9 0 -15 9 -15 16 0 20 16 6 24 -5 3 -11 -1 -15 -9z"/>
<path d="M4684 6330 c-37 -15 -35 -36 7 -84 23 -25 44 -46 49 -46 4 0 24 21
45 46 l37 45 -23 25 c-24 25 -73 31 -115 14z"/>
<path d="M8210 6331 c0 -5 5 -13 10 -16 6 -3 10 -2 10 4 0 5 -4 13 -10 16 -5
3 -10 2 -10 -4z"/>
<path d="M8179 6298 c0 -7 -2 -24 -5 -38 -12 -73 -44 -304 -49 -360 -4 -36
-15 -121 -25 -190 -17 -109 -18 -126 -5 -133 8 -4 15 -15 15 -23 0 -19 27 -14
140 21 41 13 101 31 132 39 74 21 78 38 43 177 -34 133 -84 299 -91 299 -4 0
-3 -8 0 -17 4 -10 4 -14 -1 -10 -4 4 -15 27 -23 50 -17 44 -103 182 -120 192
-6 3 -10 0 -11 -7z m177 -293 c9 -39 0 -30 -15 15 -6 19 -7 30 -2 25 5 -6 13
-23 17 -40z m49 -176 c19 -74 35 -143 34 -154 0 -15 -78 276 -79 294 0 23 16
-29 45 -140z"/>
<path d="M8220 6294 c0 -13 50 -77 50 -64 1 8 7 2 15 -15 18 -41 19 -23 0 21
-8 20 -19 33 -24 30 -5 -4 -12 3 -16 14 -6 18 -25 29 -25 14z"/>
<path d="M4620 6200 l0 -90 48 36 c26 20 49 38 51 40 5 5 -81 104 -91 104 -4
0 -8 -40 -8 -90z"/>
<path d="M1392 6107 c-33 -88 -73 -220 -68 -224 2 -3 12 23 22 56 9 34 20 64
25 67 4 2 1 -16 -7 -41 -9 -24 -14 -49 -12 -54 1 -6 35 28 73 74 56 68 69 90
67 112 -5 34 0 29 -44 48 l-37 15 -19 -53z m19 10 c-10 -9 -11 -8 -5 6 3 10 9
15 12 12 3 -3 0 -11 -7 -18z"/>
<path d="M3560 5940 c-61 -71 -116 -130 -121 -130 -5 0 -9 -5 -9 -12 0 -6 -13
-23 -29 -37 -16 -14 -82 -89 -148 -166 -102 -121 -119 -145 -118 -173 1 -19
10 -39 21 -47 19 -15 230 -150 362 -232 37 -22 72 -45 78 -51 5 -5 21 -15 35
-22 13 -7 60 -36 104 -65 191 -123 196 -126 216 -120 16 5 19 13 15 43 l-5 37
10 -37 c15 -52 48 -58 108 -19 25 16 80 50 121 76 41 25 102 64 135 85 33 21
92 58 130 81 79 48 115 77 115 94 0 6 -134 139 -297 294 -164 156 -353 338
-421 404 -67 66 -125 118 -128 114 -3 -3 0 -31 6 -62 6 -31 10 -59 7 -61 -2
-2 -9 21 -16 51 -12 51 -32 85 -50 85 -5 0 -59 -58 -121 -130z m239 -225 c0
-17 -11 9 -24 60 -13 50 -24 101 -24 115 0 14 11 -13 24 -60 13 -47 24 -98 24
-115z m60 -275 c0 -14 -13 27 -29 90 -17 63 -29 124 -29 135 1 26 58 -192 58
-225z m30 -122 c28 -117 25 -144 -4 -38 -21 75 -32 141 -21 129 2 -2 13 -43
25 -91z m68 -333 c-3 -21 -48 159 -46 185 0 8 12 -25 25 -75 13 -49 23 -99 21
-110z"/>
<path d="M1420 5959 c-59 -70 -90 -117 -102 -153 -10 -30 -15 -38 -12 -18 3
17 3 32 1 32 -8 0 -53 -201 -77 -340 -28 -163 -22 -224 25 -270 33 -32 55 -33
55 -2 0 12 3 13 8 5 4 -7 8 7 8 30 1 111 96 554 159 736 14 41 24 76 22 77 -2
2 -41 -42 -87 -97z m-126 -253 c-3 -21 -8 -35 -11 -32 -2 2 -1 20 3 40 3 21 8
35 11 32 2 -2 1 -20 -3 -40z m-38 -197 c-14 -79 -26 -160 -29 -179 l-4 -35 -1
35 c-1 20 9 100 23 178 14 78 25 145 25 149 0 3 2 4 5 1 3 -2 -6 -70 -19 -149z"/>
<path d="M4941 5963 c18 -22 267 -314 283 -330 25 -27 52 -4 74 66 32 98 32
97 -40 105 -59 6 -66 9 -109 56 -25 28 -48 50 -52 50 -3 0 -42 16 -88 35 -59
26 -78 31 -68 18z"/>
<path d="M4866 5963 c-18 -5 -18 -14 -14 -145 5 -125 8 -143 28 -171 23 -30
23 -31 6 -61 -16 -28 -51 -214 -42 -223 6 -6 364 175 372 189 21 33 4 63 -108
196 -196 231 -192 228 -242 215z"/>
<path d="M7640 5775 c-13 -41 -3 -81 61 -229 l39 -89 0 -154 c0 -180 -13 -180
130 3 52 65 106 132 122 147 22 23 27 37 25 68 -3 42 12 30 -244 206 -51 35
-95 68 -98 73 -12 19 -23 10 -35 -25z"/>
<path d="M5320 5733 c-7 -32 -17 -66 -22 -76 -6 -12 -3 -25 10 -42 l19 -24 64
23 c35 13 80 30 98 38 l35 14 -81 62 c-45 34 -88 62 -96 62 -9 0 -19 -21 -27
-57z"/>
<path d="M5500 5640 c-8 -5 -52 -21 -97 -35 -46 -14 -83 -29 -83 -34 0 -5 21
-13 48 -19 48 -10 235 -63 285 -81 15 -5 27 -6 27 -3 0 32 -123 182 -149 182
-9 0 -23 -5 -31 -10z"/>
<path d="M8375 5600 c-33 -10 -100 -30 -149 -44 -82 -23 -136 -48 -136 -62 0
-3 7 -20 14 -37 14 -31 31 -75 79 -214 11 -35 26 -63 32 -62 5 0 33 28 60 61
91 111 194 246 191 249 -2 2 -6 31 -9 64 l-6 60 13 -55 c14 -54 20 -33 7 24
-7 36 -20 38 -96 16z"/>
<path d="M4620 5445 l0 -163 24 -6 c14 -3 33 -3 43 0 16 5 16 4 3 -8 -36 -31
-22 -65 77 -186 269 -333 324 -400 350 -431 l29 -33 27 36 c16 20 34 36 42 36
8 0 21 10 29 22 23 33 24 828 1 828 -15 0 -380 -183 -404 -203 -7 -7 -19 -12
-25 -12 -6 0 -30 -10 -53 -23 -58 -31 -68 -28 -13 5 25 14 47 28 49 30 3 2 -7
16 -21 31 -38 41 -68 96 -68 124 0 62 -11 83 -51 100 l-39 17 0 -164z"/>
<path d="M5293 5540 l-23 -9 0 -376 c0 -206 2 -375 4 -375 2 0 16 20 30 45 15
25 41 52 58 61 29 15 34 15 65 0 34 -16 34 -16 59 13 14 17 63 50 109 76 46
25 87 50 90 56 4 5 1 25 -5 45 l-12 36 -67 -6 c-36 -4 -71 -3 -78 1 -6 5 -13
23 -15 42 -3 30 -8 36 -42 47 -37 13 -40 12 -75 -15 -44 -34 -101 -64 -108
-57 -3 3 9 23 28 44 42 48 155 112 198 112 17 0 60 13 95 29 55 25 65 34 76
66 15 45 23 41 10 -4 -12 -42 12 -92 83 -173 54 -63 58 -64 164 -52 l52 7 -19
37 c-11 21 -55 67 -102 106 -46 37 -99 83 -120 102 -20 19 -41 31 -47 28 -6
-4 -11 -1 -11 7 0 9 -33 24 -97 42 -54 15 -131 39 -171 52 -78 25 -95 27 -129
13z"/>
<path d="M3040 5470 c-9 -16 -8 -20 5 -20 8 0 15 9 15 20 0 11 -2 20 -5 20 -2
0 -9 -9 -15 -20z"/>
<path d="M8004 5448 c-22 -24 -74 -86 -114 -138 -41 -52 -91 -115 -112 -139
-44 -51 -47 -74 -23 -231 17 -115 44 -205 97 -328 47 -106 68 -121 111 -78 23
23 26 36 36 163 17 213 19 220 14 53 -3 -85 -7 -159 -10 -163 -3 -5 -2 -12 3
-16 5 -3 14 -15 20 -26 11 -19 23 -20 233 -22 242 -2 238 -3 207 55 -8 15 -55
117 -104 227 -50 110 -102 226 -117 258 -14 31 -29 57 -34 57 -4 0 -13 -15
-19 -32 -11 -33 -12 -33 -6 -3 14 79 13 83 -55 270 -30 82 -45 115 -51 115 -3
0 -17 -125 -30 -277 -14 -153 -26 -260 -28 -237 -2 22 6 142 18 266 23 253 23
268 12 268 -4 0 -26 -19 -48 -42z m147 -494 c-16 -43 -30 -72 -31 -64 -1 19
54 163 58 152 1 -5 -11 -44 -27 -88z m-55 -165 c-14 -35 -25 -58 -26 -50 0 20
43 136 47 124 2 -5 -8 -38 -21 -74z m-50 -150 c-14 -35 -25 -58 -25 -50 -1 20
42 136 46 124 2 -6 -7 -39 -21 -74z"/>
<path d="M8485 5415 l4 -70 -10 54 c-5 30 -11 56 -13 58 -2 2 -31 -34 -66 -79
-34 -46 -70 -90 -79 -98 -41 -38 -83 -101 -77 -116 4 -9 2 -22 -4 -29 -8 -10
70 -195 195 -460 8 -16 22 -48 32 -70 l16 -40 8 65 c10 79 8 783 -2 825 -4 17
-6 1 -4 -40z"/>
<path d="M2996 5398 c-37 -64 -103 -218 -110 -258 l-6 -35 21 25 c11 14 51 73
88 132 66 103 68 108 57 142 -6 20 -14 36 -18 36 -4 0 -18 -19 -32 -42z"/>
<path d="M3091 5371 c-13 -3 -29 -15 -35 -26 -6 -10 -49 -77 -95 -148 -89
-137 -94 -152 -106 -294 l-8 -83 542 0 541 0 0 23 c0 17 -19 34 -78 71 -42 28
-113 73 -157 101 -44 28 -108 69 -143 91 -34 21 -116 73 -181 115 -121 79
-252 160 -255 158 0 -1 -12 -4 -25 -8z"/>
<path d="M1216 5198 c-3 -13 -6 -57 -6 -98 l1 -75 22 29 c28 38 32 128 6 152
-15 13 -17 13 -23 -8z"/>
<path d="M4529 5176 c-185 -113 -368 -227 -389 -244 -14 -10 -44 -29 -67 -42
-24 -13 -43 -29 -43 -36 0 -12 64 -35 234 -85 43 -13 73 -25 67 -27 -9 -3
-138 33 -259 72 -39 13 -43 12 -52 -5 -8 -14 -3 -29 20 -67 16 -27 30 -53 30
-57 0 -5 10 -22 23 -39 13 -17 34 -52 47 -78 13 -27 27 -48 32 -48 4 0 8 -6 9
-12 0 -7 18 -42 39 -78 22 -36 51 -87 66 -115 14 -27 34 -60 44 -75 21 -31
111 -185 129 -220 22 -46 47 -68 100 -91 40 -17 61 -34 85 -70 27 -41 34 -45
49 -34 9 7 17 16 17 21 0 5 13 21 29 35 22 20 31 39 40 94 17 98 48 144 144
214 139 101 147 111 147 185 0 35 7 80 15 99 l15 36 -33 9 c-142 42 -181 56
-171 59 6 2 53 -10 104 -27 52 -16 96 -28 98 -25 3 3 13 23 23 45 l18 41 -24
21 c-14 12 -25 28 -25 35 0 7 -4 13 -9 13 -4 0 -30 28 -56 63 -27 34 -92 114
-145 177 -52 63 -111 135 -130 160 -65 87 -89 107 -117 102 -17 -3 -30 1 -38
11 -11 15 -17 13 -66 -17z m-65 -465 c50 -16 134 -41 186 -56 156 -46 236 -73
217 -74 -9 -1 -59 12 -110 28 -50 16 -130 40 -177 54 -191 56 -230 69 -230 73
0 9 27 3 114 -25z"/>
<path d="M1242 5045 l-32 -46 1 -177 c0 -97 4 -199 8 -227 7 -49 7 -47 20 55
7 58 14 110 16 115 8 23 4 -86 -6 -150 -13 -83 -20 -303 -10 -309 4 -3 6 10 5
27 -1 18 1 22 3 10 2 -13 8 -23 13 -23 14 0 70 93 66 109 -3 9 -8 141 -12 294
-4 152 -10 277 -14 277 -5 0 -13 -39 -20 -87 -16 -121 -20 -132 -14 -38 4 77
6 97 19 178 3 20 2 37 -3 37 -4 0 -23 -20 -40 -45z"/>
<path d="M1311 5074 c0 -11 3 -14 6 -6 3 7 2 16 -1 19 -3 4 -6 -2 -5 -13z"/>
<path d="M2847 4793 c-4 -3 -7 -23 -7 -44 0 -37 11 -49 280 -316 529 -524 531
-526 558 -470 10 22 11 22 12 -3 1 -31 28 -67 55 -73 15 -4 13 -5 -7 -6 -43
-2 -35 -24 34 -97 l63 -66 7 37 c5 20 18 50 29 67 12 16 20 30 18 32 -2 2 -29
8 -59 13 l-55 11 65 -5 66 -5 24 35 c21 31 33 37 90 48 83 17 143 13 191 -11
46 -24 61 -24 114 -3 22 8 66 18 97 22 l57 6 -66 110 c-36 61 -68 117 -71 125
-3 8 -15 29 -26 45 -12 17 -48 77 -80 135 -33 58 -69 121 -81 140 -26 42 -48
78 -111 188 -26 45 -53 82 -59 82 -7 0 -16 -12 -19 -27 -11 -45 -152 -446
-193 -548 -38 -95 -19 -22 27 105 23 63 48 133 55 155 7 22 34 98 59 169 25
72 46 136 46 143 0 11 -105 13 -553 13 -305 0 -557 -3 -560 -7z m899 -665 c-6
-31 -55 -146 -56 -131 0 14 51 153 56 153 3 0 2 -10 0 -22z"/>
<path d="M2840 4672 c0 -14 120 -418 156 -524 31 -91 43 -113 83 -152 45 -45
121 -86 121 -66 0 5 -15 27 -33 47 -39 44 -69 127 -95 265 -19 96 -19 97 2
102 11 3 21 4 23 2 2 -1 19 -65 39 -141 25 -99 51 -170 89 -245 70 -140 88
-208 70 -261 -8 -21 -12 -39 -10 -39 6 0 118 71 125 79 3 3 51 37 108 74 79
53 102 74 102 91 0 15 -25 46 -72 91 -40 38 -214 208 -385 377 -172 169 -315
308 -318 308 -3 0 -5 -3 -5 -8z"/>
<path d="M7910 4487 c0 -7 14 -26 30 -42 27 -26 30 -27 30 -9 0 21 -34 64 -50
64 -6 0 -10 -6 -10 -13z"/>
<path d="M8035 4480 c-3 -11 -13 -20 -21 -20 -17 0 -15 -11 12 -87 15 -42 16
-42 90 -59 41 -9 76 -15 78 -13 1 2 30 48 64 102 l62 97 -139 0 c-131 0 -140
-1 -146 -20z"/>
<path d="M8366 4488 c-2 -7 -12 -62 -21 -123 -18 -115 -80 -371 -112 -464 -19
-54 -19 -54 3 -122 12 -38 30 -79 39 -91 12 -15 15 -17 12 -5 -4 9 -2 17 3 17
6 0 10 5 10 11 0 5 -4 7 -10 4 -6 -3 -7 1 -4 9 3 9 11 13 17 9 6 -4 8 0 4 10
-4 10 -1 30 5 45 6 15 12 30 13 35 2 4 3 8 5 10 1 1 3 9 5 17 2 8 17 67 34
130 45 164 79 317 93 415 8 55 15 80 21 72 6 -8 7 -6 3 6 -3 10 -6 21 -6 23 0
2 -25 4 -55 4 -36 0 -57 -4 -59 -12z"/>
<path d="M1341 4434 c0 -11 3 -14 6 -6 3 7 2 16 -1 19 -3 4 -6 -2 -5 -13z"/>
<path d="M7980 4411 c0 -10 7 -24 15 -31 16 -13 18 -8 9 28 -8 27 -24 29 -24
3z"/>
<path d="M1284 4325 c-26 -34 -26 -37 -15 -98 7 -34 21 -97 32 -141 11 -43 18
-85 15 -93 -3 -8 -2 -12 3 -9 5 3 12 -11 16 -31 5 -29 253 -534 271 -552 14
-14 13 14 -2 58 -9 29 -14 54 -11 57 5 5 37 -81 41 -111 4 -25 16 -29 16 -5 0
25 -50 143 -58 136 -9 -10 -143 411 -192 606 -28 110 -53 205 -56 209 -11 18
-34 8 -60 -26z"/>
<path d="M1261 4172 c18 -84 55 -212 43 -147 -17 85 -51 225 -56 230 -3 4 2
-34 13 -83z"/>
<path d="M4730 3850 c-61 -73 -48 -92 46 -69 32 8 44 16 44 30 0 22 -31 89
-41 89 -4 0 -26 -23 -49 -50z"/>
<path d="M3598 3854 c-8 -8 -44 -33 -80 -57 -131 -84 -223 -149 -221 -155 1
-4 12 -24 25 -45 17 -29 41 -48 93 -74 39 -20 93 -57 122 -84 28 -27 56 -49
61 -49 5 0 15 53 22 118 7 64 15 111 18 103 3 -8 -1 -66 -8 -128 -13 -112 -13
-113 9 -137 23 -24 154 -79 266 -111 88 -26 279 -110 333 -147 100 -68 146
-116 172 -178 21 -49 29 -60 50 -61 23 -2 23 -2 3 -6 -35 -7 -10 -46 42 -65
l44 -17 21 34 c29 47 19 63 -38 59 l-47 -3 47 10 c86 20 83 24 -174 295 -218
230 -234 245 -263 241 -45 -7 -114 23 -187 82 l-66 53 -7 87 -7 86 -69 75
c-51 55 -71 72 -80 63 -6 -6 -17 -51 -25 -100 l-13 -88 5 95 c5 86 3 96 -14
107 -15 9 -22 8 -34 -3z"/>
<path d="M1351 3838 c-3 -21 101 -289 171 -440 32 -68 45 -88 66 -93 54 -13
49 10 -43 188 -136 265 -171 328 -152 274 4 -12 3 -16 -4 -11 -6 3 -8 15 -6
26 3 11 3 17 -1 14 -3 -4 -11 6 -18 21 -7 16 -13 25 -13 21z m57 -123 c-3 -3
-9 2 -12 12 -6 14 -5 15 5 6 7 -7 10 -15 7 -18z m21 -47 c6 -18 7 -28 2 -23
-10 12 -25 55 -18 55 3 0 10 -15 16 -32z m21 -58 c6 -11 8 -20 6 -20 -3 0 -10
9 -16 20 -6 11 -8 20 -6 20 3 0 10 -9 16 -20z m24 -56 c3 -8 2 -12 -4 -9 -6 3
-10 10 -10 16 0 14 7 11 14 -7z m35 -89 c0 -5 -6 1 -14 15 -8 14 -14 30 -14
35 0 6 6 -1 14 -15 8 -14 14 -29 14 -35z"/>
<path d="M8169 3722 l-37 -97 56 -3 c34 -2 58 1 60 7 2 6 7 9 12 6 13 -8 -33
159 -49 177 -3 4 -22 -37 -42 -90z"/>
<path d="M4766 3769 c-51 -12 -51 -12 -31 -43 20 -30 24 -31 69 -12 29 12 33
18 29 40 -6 28 -8 29 -67 15z"/>
<path d="M8082 3512 c-23 -53 -71 -149 -106 -212 -57 -103 -69 -140 -46 -140
4 0 27 26 51 58 23 31 46 59 49 62 8 6 91 124 155 220 24 36 46 75 50 88 6 21
4 22 -52 22 l-59 0 -42 -98z"/>
<path d="M4624 3536 c-15 -38 0 -50 81 -66 88 -18 161 -52 243 -112 48 -35 58
-39 85 -32 l30 9 -86 73 c-96 81 -99 82 -237 117 -116 29 -109 29 -116 11z"/>
<path d="M4566 3519 c-15 -9 -16 -13 -5 -20 25 -16 49 -10 49 11 0 22 -15 25
-44 9z"/>
<path d="M4229 3503 c-36 -12 -52 -25 -69 -55 l-21 -38 92 -100 c50 -55 93
-100 94 -100 1 0 0 11 -2 24 -3 13 4 41 15 62 11 22 23 62 27 89 4 28 9 58 11
67 4 12 -8 25 -35 43 -46 28 -49 29 -112 8z"/>
<path d="M8167 3437 c-48 -52 -227 -295 -227 -308 0 -5 5 -9 10 -9 6 0 10 -6
10 -14 0 -7 6 -19 14 -25 12 -10 22 0 55 57 42 71 49 88 29 76 -7 -4 -8 -3 -4
5 4 6 11 9 16 6 5 -3 39 53 75 125 36 71 64 130 63 130 -2 -1 -20 -20 -41 -43z
m-6 -30 c-10 -9 -11 -8 -5 6 3 10 9 15 12 12 3 -3 0 -11 -7 -18z m-141 -267
c-6 -11 -13 -20 -16 -20 -2 0 0 9 6 20 6 11 13 20 16 20 2 0 0 -9 -6 -20z
m-27 -45 c-3 -9 -8 -14 -10 -11 -3 3 -2 9 2 15 9 16 15 13 8 -4z"/>
<path d="M4930 3467 c0 -2 35 -33 79 -70 87 -73 110 -77 136 -26 8 15 15 30
15 33 0 13 -114 54 -168 60 -34 4 -62 5 -62 3z"/>
<path d="M5265 3391 l-80 -16 -3 -35 c-3 -35 -1 -36 50 -55 32 -12 79 -20 118
-20 75 0 160 13 160 24 0 5 -20 19 -45 32 -31 17 -45 30 -45 44 0 15 -10 25
-33 33 -18 7 -35 12 -38 11 -2 -1 -40 -9 -84 -18z"/>
<path d="M1661 3380 c-1 -18 16 -46 23 -40 2 3 -2 16 -9 30 -8 15 -14 19 -14
10z"/>
<path d="M1619 3208 c22 -40 44 -73 50 -73 5 0 13 -4 18 -9 5 -5 3 -6 -4 -2
-17 10 -16 -6 2 -30 13 -17 14 -13 10 46 -7 85 -9 91 -51 118 -64 40 -69 29
-25 -50z m21 2 c6 -11 8 -20 6 -20 -3 0 -10 9 -16 20 -6 11 -8 20 -6 20 3 0
10 -9 16 -20z"/>
<path d="M1712 3268 c-7 -7 -12 -16 -12 -20 0 -10 133 -179 137 -174 2 2 -23
49 -55 104 -45 77 -62 98 -70 90z"/>
<path d="M1700 3191 c0 -24 33 -147 42 -159 6 -7 8 -15 5 -19 -9 -8 22 -65 33
-58 5 3 12 0 16 -6 5 -8 3 -9 -6 -4 -8 5 -11 3 -8 -6 3 -8 10 -14 15 -14 6 0
15 -4 20 -9 5 -5 2 -6 -6 -1 -9 5 -12 3 -9 -6 3 -8 10 -14 15 -14 6 0 15 -4
20 -9 5 -5 3 -6 -4 -2 -19 11 -16 -9 4 -25 11 -10 14 -10 9 -1 -11 18 -1 15
15 -5 10 -11 10 -14 2 -9 -17 10 -17 -9 0 -23 17 -13 36 0 71 48 l25 34 -37
46 c-20 25 -45 54 -55 65 -10 10 -16 24 -13 32 3 8 0 11 -8 8 -8 -3 -37 26
-71 70 -54 71 -75 89 -75 67z"/>
<path d="M4376 3158 c20 -24 82 -89 136 -146 l98 -102 0 120 c0 113 -1 120
-22 131 -41 22 -122 39 -187 39 l-63 0 38 -42z"/>
<path d="M7825 3049 c-90 -138 -90 -139 -77 -139 6 0 35 35 66 78 31 42 68 92
82 110 21 25 25 37 18 53 -8 18 -20 5 -89 -102z"/>
<path d="M4621 3028 l1 -103 18 50 c29 79 23 155 -12 155 -4 0 -8 -46 -7 -102z"/>
<path d="M7920 3111 c0 -4 -10 -19 -23 -33 -28 -30 -117 -154 -117 -163 0 -13
116 58 144 89 16 17 25 24 20 16 -7 -13 -5 -13 9 -1 17 14 24 37 8 27 -5 -4
-7 3 -4 13 5 21 -12 61 -27 61 -6 0 -10 -4 -10 -9z"/>
<path d="M5800 2954 c-30 -7 -112 -17 -182 -20 -71 -4 -128 -11 -128 -16 0 -5
9 -70 21 -144 11 -75 19 -150 17 -167 -2 -18 -14 46 -27 141 -14 94 -28 172
-32 172 -5 0 -23 -7 -41 -16 -32 -15 -37 -14 -102 10 -106 40 -177 20 -291
-86 -66 -61 -72 -64 -105 -57 -19 4 -66 10 -105 14 -55 5 -79 13 -112 36 -24
17 -43 26 -43 21 0 -15 190 -132 215 -132 36 0 53 -10 48 -28 -3 -13 33 -41
139 -111 79 -52 214 -142 301 -200 191 -127 193 -127 171 14 -7 50 -13 108
-13 130 1 22 10 -16 20 -84 10 -68 21 -126 24 -129 2 -2 11 -2 19 1 14 6 31
39 151 292 76 161 109 225 113 220 2 -2 -17 -48 -43 -102 -26 -54 -65 -136
-88 -183 -22 -47 -57 -120 -78 -163 -21 -43 -35 -85 -32 -93 3 -8 21 -15 42
-16 33 -1 34 -1 6 -5 -17 -2 -36 -12 -43 -23 -10 -17 -4 -25 51 -73 149 -129
212 -177 231 -177 12 0 30 -3 41 -6 13 -3 54 16 125 60 58 35 129 79 159 98
30 18 72 44 95 58 84 50 109 66 184 113 43 26 92 55 110 64 69 33 28 42 -85
19 -37 -8 -99 -17 -138 -20 -64 -5 -62 -4 35 14 58 11 127 24 154 28 70 10 83
36 91 172 l6 105 -76 88 -77 87 -69 0 c-38 0 -69 -3 -69 -6 0 -4 24 -38 53
-78 29 -39 64 -88 77 -108 14 -21 28 -38 33 -38 4 0 7 -6 7 -14 0 -8 4 -16 8
-18 13 -5 94 -119 89 -124 -3 -3 -19 15 -36 40 -17 24 -37 50 -44 58 -11 11
-102 135 -187 254 -22 30 -29 34 -58 30 -53 -8 -231 28 -311 62 -40 18 -78 32
-85 32 -6 0 -24 -28 -39 -62 -15 -34 -29 -59 -33 -56 -3 3 8 33 25 66 16 33
27 62 24 66 -10 9 -52 6 -113 -10z m400 -620 c-69 -13 -138 -23 -155 -22 -37
4 185 46 240 46 23 0 -15 -10 -85 -24z m-325 -50 c-71 -13 -141 -23 -155 -22
-33 4 193 46 245 46 22 0 -18 -11 -90 -24z"/>
<path d="M7900 2949 c0 -5 -4 -8 -9 -4 -6 3 -35 -7 -65 -22 -42 -21 -55 -33
-53 -48 3 -25 46 -48 64 -33 17 13 17 31 1 22 -8 -4 -10 -3 -5 2 5 5 14 9 20
9 5 0 12 6 15 14 3 9 0 11 -8 6 -9 -5 -11 -4 -6 4 4 6 11 9 15 7 4 -3 18 8 30
24 12 17 17 30 11 30 -5 0 -10 -5 -10 -11z"/>
<path d="M1931 2845 c-33 -45 -33 -46 -15 -68 19 -21 19 -21 0 -7 -18 14 -19
14 -8 -7 7 -12 17 -25 24 -29 7 -5 8 -3 3 7 -8 12 -6 12 8 0 18 -15 23 -26 7
-16 -19 12 -10 -12 12 -31 22 -19 23 -19 8 1 -15 20 -14 20 8 1 23 -20 30 -32
12 -21 -19 12 -10 -12 12 -31 22 -19 23 -19 8 1 -11 15 -7 14 13 -4 28 -25 38
-43 12 -21 -34 28 -12 -9 27 -45 41 -39 42 -39 13 -5 -16 19 -6 12 22 -16 29
-27 69 -59 90 -70 20 -10 58 -31 84 -45 87 -50 112 -48 62 5 -31 32 -100 115
-252 303 -57 70 -106 131 -110 136 -4 4 -22 -13 -40 -38z"/>
<path d="M7744 2828 c-12 -5 -30 -29 -39 -52 -9 -22 -26 -60 -36 -84 -11 -24
-16 -48 -13 -54 4 -6 3 -8 -2 -5 -6 3 -11 -4 -11 -16 -2 -17 6 -12 37 23 39
45 51 68 28 54 -9 -5 -9 -2 1 9 16 20 25 23 15 5 -4 -7 2 -4 14 6 26 23 30 44
5 25 -15 -11 -14 -10 1 9 21 24 31 29 21 10 -4 -7 5 0 19 17 23 27 24 31 9 47
-18 20 -20 21 -49 6z m56 -22 c0 -2 -8 -10 -17 -17 -16 -13 -17 -12 -4 4 13
16 21 21 21 13z m-100 -129 c0 -2 -10 -12 -22 -23 l-23 -19 19 23 c18 21 26
27 26 19z"/>
<path d="M4583 2793 l-22 -33 27 -14 c67 -33 131 -48 187 -41 l55 7 -52 38
c-118 83 -162 93 -195 43z"/>
<path d="M7575 2703 c-311 -354 -383 -435 -454 -512 -42 -47 -80 -90 -86 -96
-5 -6 -28 -30 -49 -53 -33 -35 -36 -41 -18 -39 11 0 18 5 15 11 -4 5 1 7 9 4
26 -10 240 165 418 342 119 118 129 129 35 40 l-130 -125 137 139 c76 77 138
141 138 144 0 2 8 16 18 30 11 15 24 41 30 57 6 17 24 63 41 104 36 84 35 81
19 80 -7 0 -62 -57 -123 -126z m-291 -454 c-10 -12 -41 -39 -69 -61 -39 -32
-36 -27 15 20 66 62 88 79 54 41z m-159 -134 c-42 -36 -136 -105 -122 -89 13
14 151 123 157 123 3 0 -13 -15 -35 -34z"/>
<path d="M7151 2781 c-36 -16 -112 -39 -169 -52 -118 -25 -96 -7 -208 -177
-58 -90 -59 -93 -43 -109 8 -8 18 -7 37 3 31 15 126 59 257 116 49 22 101 46
115 53 14 7 69 32 123 56 54 24 100 46 102 49 7 11 -90 77 -121 83 -20 4 -49
-3 -93 -22z"/>
<path d="M6790 2695 c-8 -2 -32 -6 -52 -10 -42 -7 -43 -8 -52 -147 -6 -87 7
-103 37 -45 10 17 35 57 57 87 21 30 39 60 39 66 1 5 10 20 21 32 l21 22 -28
-1 c-15 -1 -35 -3 -43 -4z"/>
<path d="M7220 2638 c-58 -27 -161 -74 -230 -105 -224 -99 -245 -110 -258
-147 -11 -31 -8 -42 54 -177 36 -79 73 -158 82 -176 9 -18 14 -35 11 -38 -6
-6 -21 25 -110 222 -53 118 -68 143 -85 143 -20 0 -54 -45 -178 -235 -14 -22
-46 -70 -70 -107 -24 -36 -42 -69 -39 -72 4 -3 112 -6 241 -6 223 0 234 1 239
19 3 11 11 17 18 15 7 -3 48 36 95 90 45 53 86 96 91 96 5 0 9 7 9 15 0 7 6
18 14 22 18 10 190 203 181 203 -4 0 -39 -29 -78 -65 -59 -54 -73 -63 -75 -47
-6 38 65 190 137 290 39 56 71 103 71 106 0 10 -13 5 -120 -46z"/>
<path d="M4930 2578 c0 -38 -8 -79 -18 -102 -15 -34 -26 -42 -77 -61 -53 -20
-64 -29 -92 -76 -18 -29 -33 -59 -33 -66 0 -10 78 -13 395 -13 217 0 395 3
395 8 0 4 -19 19 -42 34 -90 56 -229 148 -464 304 -28 19 -54 34 -57 34 -4 0
-7 -28 -7 -62z"/>
<path d="M2151 2475 c2 -2 55 -56 118 -119 114 -115 115 -115 133 -94 16 19
17 37 3 84 -2 6 -21 20 -42 31 -21 10 -69 36 -108 57 -60 33 -116 55 -104 41z
m229 -212 c0 -8 -13 5 -110 105 l-105 107 108 -105 c59 -57 107 -106 107 -107z"/>
<path d="M2390 2393 c13 -18 26 -30 29 -28 3 3 -8 18 -23 33 l-29 27 23 -32z"/>
<path d="M6515 2290 c-60 -37 -141 -87 -180 -110 -38 -22 -101 -60 -140 -85
-38 -24 -107 -65 -152 -91 -45 -26 -80 -51 -77 -56 3 -4 95 -8 205 -8 l199 0
37 61 c21 34 47 73 59 88 11 14 40 58 64 96 23 39 46 72 50 75 8 6 60 87 60
95 0 12 -20 1 -125 -65z"/>
<path d="M2510 2280 c0 -5 8 -14 18 -19 9 -5 96 -93 192 -196 201 -214 255
-252 540 -386 58 -27 99 -49 92 -49 -7 0 -38 13 -70 29 -68 34 -132 61 -132
56 0 -2 43 -24 96 -49 101 -48 113 -49 184 -20 19 7 48 18 65 24 29 11 26 13
-90 63 -296 129 -601 318 -826 509 -58 49 -69 55 -69 38z"/>
<path d="M2425 2270 c-19 -31 -12 -51 33 -91 57 -50 112 -89 95 -68 -7 9 -10
19 -6 23 4 4 1 5 -7 2 -9 -3 -37 15 -70 46 l-55 51 58 -48 c32 -26 60 -45 63
-42 3 2 -10 34 -28 71 -25 52 -37 66 -55 66 -12 0 -25 -4 -28 -10z"/>
<path d="M2508 2255 c-3 -3 11 -39 31 -78 30 -58 51 -82 103 -122 36 -27 78
-60 94 -73 l29 -23 -35 22 c-19 13 -51 35 -71 51 -20 15 -40 28 -44 28 -5 0
12 -15 36 -33 66 -50 217 -152 191 -129 -12 11 -18 22 -13 24 5 1 -64 79 -153
171 -88 93 -164 166 -168 162z m312 -332 c0 -7 -39 17 -46 28 -3 6 5 3 20 -6
14 -10 26 -19 26 -22z"/>
<path d="M4710 2186 l0 -64 53 -40 c28 -22 84 -59 122 -82 39 -23 86 -58 106
-77 l36 -35 54 32 c30 17 65 39 79 50 14 10 79 53 145 95 201 129 226 148 223
164 -3 14 -51 16 -411 19 l-407 2 0 -64z"/>
<path d="M5409 2117 c-69 -45 -181 -118 -248 -161 l-122 -79 45 -45 45 -46 98
19 c54 10 152 28 218 41 66 12 143 25 170 28 61 7 -116 -32 -317 -70 -82 -15
-148 -30 -148 -33 0 -4 19 -28 43 -55 34 -39 50 -49 85 -53 l42 -6 0 -44 c0
-24 -5 -53 -11 -64 -8 -15 7 -9 58 22 37 23 75 49 84 56 10 8 53 38 98 66 142
92 313 209 309 212 -2 2 -32 -3 -68 -10 -36 -8 -78 -14 -95 -14 -16 0 13 10
65 20 84 18 120 36 120 59 0 4 -63 59 -139 123 -117 98 -145 117 -173 117 -24
0 -65 -21 -159 -83z"/>
<path d="M5972 1918 c3 -7 38 -25 79 -40 41 -16 83 -33 94 -38 28 -13 108 -40
121 -40 10 0 84 109 84 124 0 3 -86 6 -191 6 -146 0 -190 -3 -187 -12z"/>
<path d="M6331 1864 c-22 -36 -41 -69 -41 -74 0 -5 23 -16 51 -25 28 -10 63
-24 78 -31 14 -8 32 -14 39 -14 23 0 392 193 392 206 0 2 -107 4 -239 4 l-239
0 -41 -66z"/>
<path d="M5685 1769 c-104 -71 -223 -151 -263 -177 -41 -26 -86 -57 -100 -69
-15 -13 -31 -23 -36 -23 -4 0 -6 -8 -3 -19 5 -22 -24 -29 -178 -37 -55 -3
-102 -7 -104 -10 -2 -2 4 -13 14 -24 27 -30 85 -27 125 6 17 15 33 24 36 21 5
-4 -19 -26 -62 -54 -31 -21 493 -5 551 16 l30 11 -35 -6 c-91 -14 -98 -13 -25
6 151 37 154 39 161 68 13 55 65 249 86 319 19 66 20 104 1 102 -4 0 -93 -59
-198 -130z"/>
<path d="M5933 1886 c-13 -6 -23 -17 -23 -24 0 -8 -11 -51 -25 -96 -13 -44
-27 -94 -30 -111 -3 -16 -16 -66 -29 -110 -19 -62 -21 -81 -11 -83 7 -2 59 11
114 28 55 17 106 28 112 24 7 -4 9 -3 5 4 -3 6 8 15 28 22 20 6 43 25 55 43
11 18 43 66 70 107 27 41 50 80 50 86 1 12 -5 15 -124 60 -38 14 -92 35 -120
45 -27 11 -50 18 -50 18 0 -1 -10 -6 -22 -13z"/>
<path d="M2970 1816 c8 -8 51 -33 95 -56 95 -49 81 -37 -30 26 -44 25 -73 38
-65 30z"/>
<path d="M6604 1764 c-18 -14 -18 -14 6 -3 31 14 36 19 24 19 -6 0 -19 -7 -30
-16z"/>
<path d="M6221 1697 c-25 -39 -55 -85 -68 -101 -13 -16 -22 -30 -20 -33 6 -5
143 56 236 105 l74 40 -34 15 c-65 30 -112 47 -128 47 -9 0 -35 -31 -60 -73z"/>
<path d="M6530 1725 c-14 -8 -20 -14 -14 -15 5 0 19 7 30 15 24 18 16 19 -16
0z"/>
<path d="M6430 1675 c-14 -8 -20 -14 -15 -14 6 0 21 6 35 14 14 8 21 14 15 14
-5 0 -21 -6 -35 -14z"/>
<path d="M3500 1661 c-47 -15 -112 -53 -104 -61 13 -11 216 -91 221 -87 2 3
-46 24 -106 48 -61 23 -109 45 -106 47 2 2 49 -15 105 -37 56 -23 106 -41 111
-41 5 0 3 12 -4 28 -31 59 -26 74 5 17 l33 -60 109 -32 c60 -18 110 -32 112
-30 4 4 -117 98 -201 155 -43 30 -81 50 -83 44 -2 -6 -13 -5 -30 4 -30 15 -27
15 -62 5z"/>
<path d="M3710 1603 c14 -10 47 -36 75 -58 72 -58 117 -90 142 -103 26 -14
242 -62 278 -62 l25 0 -29 58 -29 57 -88 18 c-72 15 -286 72 -379 102 -16 5
-15 2 5 -12z"/>
<path d="M6295 1610 c-3 -6 1 -7 9 -4 18 7 21 14 7 14 -6 0 -13 -4 -16 -10z"/>
<path d="M5906 1473 c-59 -19 -106 -36 -104 -38 4 -5 217 61 226 69 9 10 -10
5 -122 -31z"/>
<path d="M3695 1484 c57 -21 219 -65 211 -57 -7 7 -225 72 -241 72 -5 0 8 -7
30 -15z"/>
<path d="M4198 1473 c28 -67 53 -102 79 -107 80 -16 218 -27 221 -18 2 6 17
28 33 49 36 45 34 47 -86 58 -44 4 -116 13 -160 21 -99 17 -96 18 -87 -3z"/>
<path d="M4559 1417 c-7 -11 -20 -30 -30 -41 -25 -26 -24 -33 8 -40 37 -10
502 -5 478 5 -17 6 -17 8 -2 8 24 1 21 21 -11 56 l-27 30 -203 2 c-196 2 -202
1 -213 -20z"/>
<path d="M5720 1420 c-20 -6 -21 -8 -5 -8 11 0 29 3 40 8 25 11 -1 11 -35 0z"/>
<path d="M4045 1390 c50 -15 187 -38 180 -32 -7 7 -171 41 -195 40 -8 0 -1 -4
15 -8z"/>
<path d="M4271 1350 c9 -5 50 -12 90 -14 l74 -5 -65 9 c-36 5 -76 12 -90 15
-20 4 -21 3 -9 -5z"/>
<path d="M5127 1343 c18 -2 50 -2 70 0 21 2 7 4 -32 4 -38 0 -55 -2 -38 -4z"/>
<path d="M5280 1340 l-45 -7 40 0 c22 0 54 3 70 7 26 7 27 8 5 7 -14 0 -45 -3
-70 -7z"/>
<path d="M5058 1333 c7 -3 16 -2 19 1 4 3 -2 6 -13 5 -11 0 -14 -3 -6 -6z"/>
</g>
</svg>
