<svg xmlns="http://www.w3.org/2000/svg" x="0px" y="0px"
width="26" height="26"
viewBox="0 0 192 192"
style=" fill:#000000;"><g fill="none" fill-rule="nonzero" stroke="none" stroke-width="1" stroke-linecap="butt" stroke-linejoin="miter" stroke-miterlimit="10" stroke-dasharray="" stroke-dashoffset="0" font-family="none" font-weight="none" font-size="none" text-anchor="none" style="mix-blend-mode: normal"><path d="M0,192v-192h192v192z" fill="none"></path><g fill="#cccccc"><g id="surface1"><path d="M95.30769,-0.23077c-0.31731,0.05769 -0.63461,0.14423 -0.92308,0.23077c-3.43269,0.77885 -5.85577,3.86539 -5.76923,7.38462v7.84615c-38.85577,3.51923 -69.86538,34.52884 -73.38462,73.38462h-7.84615c-0.23077,0 -0.46154,0 -0.69231,0c-4.06731,0.20192 -7.24038,3.66346 -7.03846,7.73077c0.20192,4.06731 3.66346,7.24039 7.73077,7.03846h7.84615c3.51923,38.85577 34.52884,69.86539 73.38462,73.38462v7.84615c-0.02884,2.65385 1.35577,5.13462 3.66346,6.49038c2.30769,1.32693 5.13461,1.32693 7.4423,0c2.30769,-1.35576 3.69231,-3.83654 3.66346,-6.49038v-7.84615c38.85577,-3.51923 69.86539,-34.52884 73.38462,-73.38462h7.84615c2.65385,0.02884 5.13462,-1.35577 6.49038,-3.66346c1.32693,-2.30769 1.32693,-5.13461 0,-7.4423c-1.35576,-2.30769 -3.83654,-3.69231 -6.49038,-3.66346h-7.84615c-3.51923,-38.85577 -34.52884,-69.86538 -73.38462,-73.38462v-7.84615c0.08654,-2.13461 -0.77885,-4.18269 -2.30769,-5.625c-1.55769,-1.47115 -3.66346,-2.19231 -5.76923,-1.99038zM88.61538,37.38462v6.92308c-0.02884,2.65385 1.35577,5.13462 3.66346,6.49038c2.30769,1.32693 5.13461,1.32693 7.4423,0c2.30769,-1.35576 3.69231,-3.83654 3.66346,-6.49038v-6.92308c26.76923,3.31731 47.91346,24.46154 51.23077,51.23077h-6.92308c-0.23077,0 -0.46154,0 -0.69231,0c-4.06731,0.20192 -7.24039,3.66346 -7.03846,7.73077c0.20192,4.06731 3.66346,7.24039 7.73077,7.03846h6.92308c-3.31731,26.76923 -24.46154,47.91346 -51.23077,51.23077v-6.92308c0.0577,-2.27885 -0.95192,-4.4423 -2.71153,-5.88462c-1.73077,-1.4423 -4.06731,-1.99038 -6.28847,-1.5c-3.43269,0.77885 -5.85577,3.86539 -5.76923,7.38462v6.92308c-26.76923,-3.31731 -47.91346,-24.46154 -51.23077,-51.23077h6.92308c2.65385,0.02884 5.13462,-1.35577 6.49038,-3.66346c1.32693,-2.30769 1.32693,-5.13461 0,-7.4423c-1.35576,-2.30769 -3.83654,-3.69231 -6.49038,-3.66346h-6.92308c3.31731,-26.76923 24.46154,-47.91346 51.23077,-51.23077z"></path></g></g></g></svg>