<svg xmlns="http://www.w3.org/2000/svg" x="0px" y="0px"
width="50" height="50"
viewBox="0 0 192 192"
style=" fill:#000000;"><g fill="none" fill-rule="nonzero" stroke="none" stroke-width="1" stroke-linecap="butt" stroke-linejoin="miter" stroke-miterlimit="10" stroke-dasharray="" stroke-dashoffset="0" font-family="none" font-weight="none" font-size="none" text-anchor="none" style="mix-blend-mode: normal"><path d="M0,192v-192h192v192z" fill="none"></path><g fill="#cccccc"><path d="M96,3.84c-0.8352,0 -1.6671,0.2724 -2.3775,0.81l-88.32,69.12c-1.6512,1.3056 -1.9581,3.7179 -0.6525,5.4075c1.3056,1.6512 3.7179,1.9581 5.4075,0.6525l5.3025,-4.185v100.995c0,2.112 1.728,3.84 3.84,3.84h153.6c2.112,0 3.84,-1.728 3.84,-3.84v-100.995l5.3025,4.185c0.7296,0.5376 1.5327,0.81 2.3775,0.81c1.152,0 2.262,-0.5025 3.03,-1.4625c1.3056,-1.6896 0.9987,-4.1019 -0.6525,-5.4075l-88.32,-69.12c-0.7104,-0.5376 -1.5423,-0.81 -2.3775,-0.81zM86.8575,61.44h17.2425c1.0368,0 2.115,0.7332 2.115,1.77l1.035,10.905c2.8416,1.4208 5.2974,2.8395 7.755,4.5675l10.215,-4.5675c0.3456,-0.2304 0.7344,-0.345 1.08,-0.345c0.6528,0 1.2642,0.3813 1.725,1.0725l8.7975,15.1275c0.3456,1.0368 0.3393,2.1138 -0.6975,2.805l-8.79,6.3375c0.3456,1.7664 0.345,3.1467 0.345,4.5675c0,1.4208 0.0006,2.8011 -0.345,4.5675l9.8325,6.3375c1.0752,0.6912 1.4196,1.7682 0.69,2.805l-8.7975,15.1275c-0.4992,0.5376 -1.1895,0.8475 -1.9575,0.8475c-0.2688,0 -0.5712,-0.0432 -0.84,-0.12l-10.215,-4.5675c-2.4576,2.112 -4.9143,3.4923 -7.7175,4.5675l-1.08,10.905c0,1.0368 -1.0323,1.77 -2.1075,1.77h-17.2425c-1.0368,0 -2.115,-0.7332 -2.115,-1.77l-1.035,-10.905c-2.8416,-1.4208 -5.2974,-2.8395 -7.755,-4.5675l-10.215,4.5675c-0.3456,0.2304 -0.7344,0.345 -1.08,0.345c-0.6528,0 -1.2642,-0.3813 -1.725,-1.0725l-8.7975,-15.1275c-0.3456,-1.0368 -0.3393,-2.1138 0.6975,-2.805l8.79,-6.3375c-0.3456,-1.7664 -0.345,-3.1467 -0.345,-4.5675c0,-1.4208 0.0033,-2.88 0.5025,-4.8l-9.99,-6.105c-1.0752,-0.6912 -1.4196,-1.7682 -0.69,-2.805l8.7975,-15.1275c0.4992,-0.5376 1.1895,-0.8475 1.9575,-0.8475c0.2688,0 0.5712,0.0432 0.84,0.12l10.215,4.5675c2.4576,-2.112 4.9143,-3.4923 7.7175,-4.5675l1.08,-10.905c0,-1.0368 1.0323,-1.77 2.1075,-1.77zM96,88.32c-8.6016,0 -15.36,6.7584 -15.36,15.36c0,8.6016 6.7584,15.36 15.36,15.36c8.6016,0 15.36,-6.7584 15.36,-15.36c0,-8.6016 -6.7584,-15.36 -15.36,-15.36z"></path></g></g></svg>